v 299368.0 5036872.542 26.962
v 299368.171 5036868.569 24.121
v 299371.408 5036873.021 24.121
v 299364.851 5036875.746 26.962
v 299364.226 5036878.65 24.121
v 299360.55 5036876.519 24.121
v 299363.881 5036872.083 26.962
v 299361.282 5036871.373 24.121
v 299363.889 5036868.799 24.121
v 299371.011 5036874.759 24.121
v 299366.862 5036876.298 26.962
v 299368.211 5036877.801 24.121
v 299368.0 5036872.542 18.0
v 299368.171 5036868.569 19.421
v 299371.408 5036873.021 19.421
v 299364.851 5036875.746 18.0
v 299364.226 5036878.65 19.421
v 299360.55 5036876.519 19.421
v 299363.881 5036872.083 18.0
v 299361.282 5036871.373 19.421
v 299363.889 5036868.799 19.421
v 299371.011 5036874.759 19.421
v 299366.862 5036876.298 18.0
v 299368.211 5036877.801 19.421
v 299364.338 5036865.354 26.302
v 299361.283 5036866.118 22.821
v 299361.273 5036863.486 22.821
v 299365.79 5036865.387 26.302
v 299368.05 5036863.065 22.821
v 299367.839 5036866.54 22.821
v 299364.281 5036862.088 22.821
v 299363.958 5036867.243 26.302
v 299365.522 5036868.99 22.821
v 299362.641 5036867.839 22.821
v 299366.04 5036866.746 26.302
v 299366.973 5036868.388 22.821
v 299364.338 5036865.354 17.58
v 299361.283 5036866.118 19.321
v 299361.273 5036863.486 19.321
v 299365.79 5036865.387 17.58
v 299368.05 5036863.065 19.321
v 299367.839 5036866.54 19.321
v 299364.281 5036862.088 19.321
v 299363.958 5036867.243 17.58
v 299365.522 5036868.99 19.321
v 299362.641 5036867.839 19.321
v 299366.04 5036866.746 17.58
v 299366.973 5036868.388 19.321
v 299376.503 5036879.879 21.821
v 299377.532 5036881.236 23.321
v 299374.737 5036881.636 21.821
v 299375.535 5036883.106 21.821
v 299379.535 5036882.545 23.321
v 299380.182 5036884.965 21.821
v 299379.488 5036885.137 21.821
v 299382.802 5036882.414 21.821
v 299378.308 5036879.503 21.821
v 299382.311 5036881.218 21.821
v 299378.995 5036880.559 23.321
v 299379.831 5036881.586 23.321
v 299376.503 5036879.879 17.82
v 299377.532 5036881.236 17.08
v 299374.737 5036881.636 17.82
v 299375.535 5036883.106 17.82
v 299379.535 5036882.545 17.08
v 299380.182 5036884.965 17.82
v 299379.488 5036885.137 17.82
v 299382.802 5036882.414 17.82
v 299378.308 5036879.503 17.82
v 299382.311 5036881.218 17.82
v 299378.995 5036880.559 17.08
v 299379.831 5036881.586 17.08
v 299360.52 5036848.076 23.001
v 299362.728 5036849.648 28.042
v 299359.793 5036852.033 23.001
v 299363.671 5036849.953 28.042
v 299366.897 5036850.054 23.001
v 299363.036 5036847.837 28.042
v 299361.796 5036845.369 23.001
v 299362.725 5036845.316 23.001
v 299366.322 5036846.218 23.001
v 299364.629 5036848.789 28.042
v 299367.101 5036847.388 23.001
v 299367.469 5036848.144 23.001
v 299360.52 5036848.076 17.96
v 299362.728 5036849.648 15.44
v 299359.793 5036852.033 17.96
v 299363.671 5036849.953 15.44
v 299366.897 5036850.054 17.96
v 299363.036 5036847.837 15.44
v 299361.796 5036845.369 17.96
v 299362.725 5036845.316 17.96
v 299366.322 5036846.218 17.96
v 299364.629 5036848.789 15.44
v 299367.101 5036847.388 17.96
v 299367.469 5036848.144 17.96
v 299360.361 5036846.053 23.221
v 299358.233 5036844.841 20.061
v 299359.974 5036844.573 20.061
v 299357.489 5036847.442 20.061
v 299360.091 5036849.191 20.061
v 299359.149 5036850.292 20.061
v 299360.129 5036848.01 23.221
v 299361.503 5036845.161 20.061
v 299361.639 5036845.744 20.061
v 299358.028 5036846.865 23.221
v 299357.421 5036846.463 20.061
v 299360.774 5036846.863 23.221
v 299360.361 5036846.053 15.32
v 299358.233 5036844.841 16.9
v 299359.974 5036844.573 16.9
v 299357.489 5036847.442 16.9
v 299360.091 5036849.191 16.9
v 299359.149 5036850.292 16.9
v 299360.129 5036848.01 15.32
v 299361.503 5036845.161 16.9
v 299361.639 5036845.744 16.9
v 299358.028 5036846.865 15.32
v 299357.421 5036846.463 16.9
v 299360.774 5036846.863 15.32
v 299359.711 5036834.364 24.841
v 299362.502 5036836.59 28.742
v 299359.79 5036837.978 24.841
v 299362.064 5036839.623 24.841
v 299362.915 5036837.829 28.742
v 299365.492 5036838.773 24.841
v 299366.711 5036836.424 24.841
v 299364.388 5036835.413 28.742
v 299366.218 5036833.909 24.841
v 299365.115 5036833.039 24.841
v 299362.975 5036832.843 24.841
v 299364.315 5036837.585 28.742
v 299359.711 5036834.364 20.381
v 299362.502 5036836.59 18.441
v 299359.79 5036837.978 20.381
v 299362.064 5036839.623 20.381
v 299362.915 5036837.829 18.441
v 299365.492 5036838.773 20.381
v 299366.711 5036836.424 20.381
v 299364.388 5036835.413 18.441
v 299366.218 5036833.909 20.381
v 299365.115 5036833.039 20.381
v 299362.975 5036832.843 20.381
v 299364.315 5036837.585 18.441
v 299363.072 5036827.83 27.462
v 299365.324 5036826.438 23.121
v 299365.287 5036828.883 23.121
v 299363.02 5036824.318 23.121
v 299359.549 5036826.255 23.121
v 299361.512 5036828.839 27.462
v 299359.1 5036828.54 23.121
v 299360.028 5036831.034 23.121
v 299362.802 5036830.0 27.462
v 299363.621 5036831.276 23.121
v 299360.689 5036824.897 23.121
v 299363.32 5036828.921 27.462
v 299363.072 5036827.83 16.6
v 299365.324 5036826.438 18.781
v 299365.287 5036828.883 18.781
v 299363.02 5036824.318 18.781
v 299359.549 5036826.255 18.781
v 299361.512 5036828.839 16.6
v 299359.1 5036828.54 18.781
v 299360.028 5036831.034 18.781
v 299362.802 5036830.0 16.6
v 299363.621 5036831.276 18.781
v 299360.689 5036824.897 18.781
v 299363.32 5036828.921 16.6
v 299358.722 5036819.548 21.941
v 299360.378 5036820.192 24.521
v 299359.352 5036821.332 21.941
v 299359.445 5036818.676 21.941
v 299360.144 5036821.82 21.941
v 299362.071 5036818.906 24.521
v 299361.152 5036818.0 21.941
v 299362.555 5036818.475 21.941
v 299362.77 5036820.908 21.941
v 299361.722 5036819.728 24.521
v 299361.314 5036821.898 21.941
v 299361.001 5036818.908 24.521
v 299358.722 5036819.548 18.661
v 299360.378 5036820.192 17.38
v 299359.352 5036821.332 18.661
v 299359.445 5036818.676 18.661
v 299360.144 5036821.82 18.661
v 299362.071 5036818.906 17.38
v 299361.152 5036818.0 18.661
v 299362.555 5036818.475 18.661
v 299362.77 5036820.908 18.661
v 299361.722 5036819.728 17.38
v 299361.314 5036821.898 18.661
v 299361.001 5036818.908 17.38
v 299358.406 5036812.532 24.801
v 299357.722 5036815.547 21.841
v 299356.138 5036813.198 21.841
v 299356.443 5036812.01 21.841
v 299361.286 5036813.983 24.801
v 299360.594 5036810.305 21.841
v 299362.206 5036814.551 21.841
v 299359.887 5036816.464 21.841
v 299358.421 5036811.848 24.801
v 299357.251 5036810.562 21.841
v 299359.429 5036811.157 24.801
v 299359.182 5036809.421 21.841
v 299358.406 5036812.532 17.4
v 299357.722 5036815.547 18.881
v 299356.138 5036813.198 18.881
v 299356.443 5036812.01 18.881
v 299361.286 5036813.983 17.4
v 299360.594 5036810.305 18.881
v 299362.206 5036814.551 18.881
v 299359.887 5036816.464 18.881
v 299358.421 5036811.848 17.4
v 299357.251 5036810.562 18.881
v 299359.429 5036811.157 17.4
v 299359.182 5036809.421 18.881
v 299362.62 5036800.566 21.181
v 299360.663 5036802.8 23.961
v 299359.776 5036799.297 21.181
v 299356.934 5036804.948 21.181
v 299359.273 5036804.049 23.961
v 299359.25 5036806.919 21.181
v 299356.616 5036801.803 21.181
v 299361.56 5036805.38 23.961
v 299362.194 5036806.335 21.181
v 299363.166 5036804.597 21.181
v 299357.392 5036800.4 21.181
v 299362.213 5036803.666 23.961
v 299362.62 5036800.566 18.421
v 299360.663 5036802.8 17.04
v 299359.776 5036799.297 18.421
v 299356.934 5036804.948 18.421
v 299359.273 5036804.049 17.04
v 299359.25 5036806.919 18.421
v 299356.616 5036801.803 18.421
v 299361.56 5036805.38 17.04
v 299362.194 5036806.335 18.421
v 299363.166 5036804.597 18.421
v 299357.392 5036800.4 18.421
v 299362.213 5036803.666 17.04
v 299360.474 5036791.814 22.721
v 299359.558 5036793.678 24.781
v 299358.143 5036792.099 22.721
v 299358.228 5036794.451 24.781
v 299356.801 5036794.004 22.721
v 299357.147 5036796.578 22.721
v 299358.288 5036797.51 22.721
v 299359.927 5036797.598 22.721
v 299361.311 5036795.708 24.781
v 299361.643 5036793.951 24.781
v 299362.167 5036793.163 22.721
v 299362.344 5036795.731 22.721
v 299360.474 5036791.814 18.481
v 299359.558 5036793.678 17.44
v 299358.143 5036792.099 18.481
v 299358.228 5036794.451 17.44
v 299356.801 5036794.004 18.481
v 299357.147 5036796.578 18.481
v 299358.288 5036797.51 18.481
v 299359.927 5036797.598 18.481
v 299361.311 5036795.708 17.44
v 299361.643 5036793.951 17.44
v 299362.167 5036793.163 18.481
v 299362.344 5036795.731 18.481
v 299355.178 5036786.351 22.921
v 299355.607 5036785.25 22.921
v 299356.736 5036787.355 19.721
v 299356.972 5036784.022 19.721
v 299353.51 5036784.491 19.721
v 299353.896 5036783.564 19.721
v 299354.219 5036783.45 19.721
v 299354.694 5036787.485 19.721
v 299353.541 5036786.821 19.721
v 299354.601 5036785.702 22.921
v 299353.318 5036786.195 19.721
v 299355.112 5036785.054 22.921
v 299355.178 5036786.351 15.0
v 299355.607 5036785.25 15.0
v 299356.736 5036787.355 16.52
v 299356.972 5036784.022 16.52
v 299353.51 5036784.491 16.52
v 299353.896 5036783.564 16.52
v 299354.219 5036783.45 16.52
v 299354.694 5036787.485 16.52
v 299353.541 5036786.821 16.52
v 299354.601 5036785.702 15.0
v 299353.318 5036786.195 16.52
v 299355.112 5036785.054 15.0
v 299358.426 5036786.323 23.661
v 299360.264 5036788.357 21.161
v 299357.98 5036788.634 21.161
v 299360.852 5036787.057 21.161
v 299359.464 5036783.578 21.161
v 299358.58 5036785.096 23.661
v 299357.603 5036783.682 21.161
v 299356.747 5036784.773 21.161
v 299356.995 5036788.149 21.161
v 299360.083 5036785.699 23.661
v 299360.667 5036784.863 21.161
v 299359.969 5036785.089 23.661
v 299358.426 5036786.323 17.16
v 299360.264 5036788.357 18.421
v 299357.98 5036788.634 18.421
v 299360.852 5036787.057 18.421
v 299359.464 5036783.578 18.421
v 299358.58 5036785.096 17.16
v 299357.603 5036783.682 18.421
v 299356.747 5036784.773 18.421
v 299356.995 5036788.149 18.421
v 299360.083 5036785.699 17.16
v 299360.667 5036784.863 18.421
v 299359.969 5036785.089 17.16
v 299355.064 5036777.584 21.241
v 299358.731 5036779.862 24.601
v 299355.537 5036780.86 21.241
v 299357.309 5036775.395 21.241
v 299360.666 5036775.403 21.241
v 299359.595 5036776.195 24.601
v 299356.68 5036781.488 21.241
v 299360.058 5036781.826 21.241
v 299359.935 5036779.521 24.601
v 299362.056 5036779.271 21.241
v 299360.855 5036777.329 24.601
v 299361.924 5036776.949 21.241
v 299355.064 5036777.584 17.88
v 299358.731 5036779.862 16.18
v 299355.537 5036780.86 17.88
v 299357.309 5036775.395 17.88
v 299360.666 5036775.403 17.88
v 299359.595 5036776.195 16.18
v 299356.68 5036781.488 17.88
v 299360.058 5036781.826 17.88
v 299359.935 5036779.521 16.18
v 299362.056 5036779.271 17.88
v 299360.855 5036777.329 16.18
v 299361.924 5036776.949 17.88
v 299358.526 5036774.062 24.801
v 299358.327 5036771.851 26.002
v 299360.793 5036773.222 24.801
v 299355.475 5036773.088 24.801
v 299357.368 5036770.84 26.002
v 299360.12 5036770.985 26.002
v 299354.937 5036771.094 24.801
v 299355.736 5036768.73 24.801
v 299356.708 5036768.191 24.801
v 299360.987 5036770.778 24.801
v 299359.171 5036769.607 26.002
v 299359.702 5036768.712 24.801
v 299358.526 5036774.062 18.34
v 299358.327 5036771.851 17.74
v 299360.793 5036773.222 18.34
v 299355.475 5036773.088 18.34
v 299357.368 5036770.84 17.74
v 299360.12 5036770.985 17.74
v 299354.937 5036771.094 18.34
v 299355.736 5036768.73 18.34
v 299356.708 5036768.191 18.34
v 299360.987 5036770.778 18.34
v 299359.171 5036769.607 17.74
v 299359.702 5036768.712 18.34
v 299357.151 5036762.02 26.922
v 299358.758 5036762.611 26.922
v 299358.245 5036765.618 22.841
v 299355.322 5036765.037 22.841
v 299353.462 5036761.739 22.841
v 299361.631 5036761.679 22.841
v 299359.243 5036757.687 22.841
v 299357.647 5036758.349 26.922
v 299355.623 5036756.547 22.841
v 299353.667 5036758.346 22.841
v 299359.301 5036760.579 26.922
v 299361.672 5036760.39 22.841
v 299357.151 5036762.02 16.72
v 299358.758 5036762.611 16.72
v 299358.245 5036765.618 18.761
v 299355.322 5036765.037 18.761
v 299353.462 5036761.739 18.761
v 299361.631 5036761.679 18.761
v 299359.243 5036757.687 18.761
v 299357.647 5036758.349 16.72
v 299355.623 5036756.547 18.761
v 299353.667 5036758.346 18.761
v 299359.301 5036760.579 16.72
v 299361.672 5036760.39 18.761
v 299372.228 5036734.706 18.761
v 299371.265 5036736.674 17.92
v 299370.743 5036735.991 17.92
v 299370.861 5036734.365 17.92
v 299373.638 5036734.837 18.761
v 299373.206 5036732.953 17.92
v 299374.495 5036733.982 17.92
v 299372.373 5036734.268 18.761
v 299371.986 5036733.003 17.92
v 299373.312 5036735.564 18.761
v 299373.218 5036736.693 17.92
v 299374.663 5036735.389 17.92
v 299372.228 5036734.706 15.94
v 299371.265 5036736.674 16.36
v 299370.743 5036735.991 16.36
v 299370.861 5036734.365 16.36
v 299373.638 5036734.837 15.94
v 299373.206 5036732.953 16.36
v 299374.495 5036733.982 16.36
v 299372.373 5036734.268 15.94
v 299371.986 5036733.003 16.36
v 299373.312 5036735.564 15.94
v 299373.218 5036736.693 16.36
v 299374.663 5036735.389 16.36
v 299376.694 5036756.356 18.24
v 299375.566 5036755.599 23.101
v 299376.4 5036754.021 18.24
v 299375.48 5036757.577 18.24
v 299374.646 5036755.601 23.101
v 299374.603 5036757.567 18.24
v 299372.368 5036755.898 18.24
v 299375.44 5036754.928 23.101
v 299373.971 5036752.91 18.24
v 299374.736 5036755.166 23.101
v 299373.185 5036753.059 18.24
v 299372.519 5036753.724 18.24
v 299376.694 5036756.356 15.0
v 299375.566 5036755.599 15.0
v 299376.4 5036754.021 15.0
v 299375.48 5036757.577 15.0
v 299374.646 5036755.601 15.0
v 299374.603 5036757.567 15.0
v 299372.368 5036755.898 15.0
v 299375.44 5036754.928 15.0
v 299373.971 5036752.91 15.0
v 299374.736 5036755.166 15.0
v 299373.185 5036753.059 15.0
v 299372.519 5036753.724 15.0
v 299380.541 5036753.897 22.561
v 299383.466 5036755.834 27.462
v 299380.413 5036756.883 22.561
v 299385.028 5036752.271 22.561
v 299384.499 5036753.889 27.462
v 299382.71 5036752.415 22.561
v 299383.383 5036754.32 27.462
v 299382.58 5036758.606 22.561
v 299385.047 5036758.39 22.561
v 299386.394 5036757.586 22.561
v 299385.173 5036754.793 27.462
v 299387.433 5036754.864 22.561
v 299380.541 5036753.897 17.66
v 299383.466 5036755.834 15.2
v 299380.413 5036756.883 17.66
v 299385.028 5036752.271 17.66
v 299384.499 5036753.889 15.2
v 299382.71 5036752.415 17.66
v 299383.383 5036754.32 15.2
v 299382.58 5036758.606 17.66
v 299385.047 5036758.39 17.66
v 299386.394 5036757.586 17.66
v 299385.173 5036754.793 15.2
v 299387.433 5036754.864 17.66
v 299399.935 5036754.02 26.042
v 299402.113 5036751.253 26.042
v 299404.512 5036757.321 23.201
v 299406.499 5036753.053 23.201
v 299405.0 5036747.619 23.201
v 299401.4 5036757.846 23.201
v 299397.311 5036755.292 23.201
v 299396.773 5036753.752 23.201
v 299399.672 5036748.746 23.201
v 299399.204 5036751.279 26.042
v 299397.697 5036750.486 23.201
v 299400.71 5036750.388 26.042
v 299399.935 5036754.02 17.76
v 299402.113 5036751.253 17.76
v 299404.512 5036757.321 19.181
v 299406.499 5036753.053 19.181
v 299405.0 5036747.619 19.181
v 299401.4 5036757.846 19.181
v 299397.311 5036755.292 19.181
v 299396.773 5036753.752 19.181
v 299399.672 5036748.746 19.181
v 299399.204 5036751.279 17.76
v 299397.697 5036750.486 19.181
v 299400.71 5036750.388 17.76
v 299371.709 5036762.231 21.761
v 299372.849 5036765.308 23.561
v 299370.026 5036765.895 21.761
v 299373.921 5036763.89 23.561
v 299379.519 5036766.482 21.761
v 299378.028 5036764.363 23.561
v 299379.576 5036762.411 21.761
v 299371.509 5036767.887 21.761
v 299375.106 5036769.404 21.761
v 299376.384 5036760.453 21.761
v 299375.875 5036766.255 23.561
v 299374.381 5036760.993 21.761
v 299371.709 5036762.231 18.04
v 299372.849 5036765.308 17.14
v 299370.026 5036765.895 18.04
v 299373.921 5036763.89 17.14
v 299379.519 5036766.482 18.04
v 299378.028 5036764.363 17.14
v 299379.576 5036762.411 18.04
v 299371.509 5036767.887 18.04
v 299375.106 5036769.404 18.04
v 299376.384 5036760.453 18.04
v 299375.875 5036766.255 17.14
v 299374.381 5036760.993 18.04
v 299377.722 5036771.094 24.861
v 299376.274 5036768.096 21.901
v 299380.515 5036767.644 21.901
v 299375.954 5036771.911 24.861
v 299373.265 5036771.554 21.901
v 299373.929 5036769.779 21.901
v 299374.821 5036774.337 21.901
v 299381.184 5036772.488 24.861
v 299382.521 5036771.148 21.901
v 299382.582 5036774.188 21.901
v 299380.206 5036774.352 24.861
v 299381.659 5036776.461 21.901
v 299377.722 5036771.094 17.46
v 299376.274 5036768.096 18.941
v 299380.515 5036767.644 18.941
v 299375.954 5036771.911 17.46
v 299373.265 5036771.554 18.941
v 299373.929 5036769.779 18.941
v 299374.821 5036774.337 18.941
v 299381.184 5036772.488 17.46
v 299382.521 5036771.148 18.941
v 299382.582 5036774.188 18.941
v 299380.206 5036774.352 17.46
v 299381.659 5036776.461 18.941
v 299379.04 5036776.355 25.422
v 299380.289 5036775.772 23.061
v 299380.634 5036777.929 23.061
v 299378.704 5036775.192 23.061
v 299380.151 5036779.147 23.061
v 299378.261 5036777.991 25.422
v 299377.811 5036780.582 23.061
v 299376.536 5036778.739 23.061
v 299377.618 5036777.761 25.422
v 299376.552 5036776.779 23.061
v 299377.801 5036777.064 25.422
v 299377.62 5036775.384 23.061
v 299379.04 5036776.355 17.6
v 299380.289 5036775.772 18.781
v 299380.634 5036777.929 18.781
v 299378.704 5036775.192 18.781
v 299380.151 5036779.147 18.781
v 299378.261 5036777.991 17.6
v 299377.811 5036780.582 18.781
v 299376.536 5036778.739 18.781
v 299377.618 5036777.761 17.6
v 299376.552 5036776.779 18.781
v 299377.801 5036777.064 17.6
v 299377.62 5036775.384 18.781
v 299377.973 5036797.651 18.521
v 299376.535 5036795.182 20.021
v 299379.134 5036795.702 18.521
v 299376.664 5036798.168 18.521
v 299373.679 5036796.585 18.521
v 299374.904 5036795.696 20.021
v 299373.562 5036795.592 18.521
v 299378.478 5036793.886 18.521
v 299377.321 5036793.297 18.521
v 299375.009 5036794.878 20.021
v 299375.587 5036793.622 18.521
v 299375.89 5036794.15 20.021
v 299377.973 5036797.651 17.0
v 299376.535 5036795.182 16.26
v 299379.134 5036795.702 17.0
v 299376.664 5036798.168 17.0
v 299373.679 5036796.585 17.0
v 299374.904 5036795.696 16.26
v 299373.562 5036795.592 17.0
v 299378.478 5036793.886 17.0
v 299377.321 5036793.297 17.0
v 299375.009 5036794.878 16.26
v 299375.587 5036793.622 17.0
v 299375.89 5036794.15 16.26
v 299371.802 5036773.371 23.901
v 299367.82 5036779.524 26.502
v 299364.978 5036775.378 23.901
v 299374.308 5036783.867 26.502
v 299372.802 5036788.665 23.901
v 299366.571 5036788.244 23.901
v 299366.404 5036782.155 26.502
v 299363.621 5036783.416 23.901
v 299374.182 5036776.703 26.502
v 299377.213 5036775.065 23.901
v 299377.123 5036783.088 23.901
v 299374.777 5036787.505 23.901
v 299371.802 5036773.371 19.181
v 299367.82 5036779.524 17.88
v 299364.978 5036775.378 19.181
v 299374.308 5036783.867 17.88
v 299372.802 5036788.665 19.181
v 299366.571 5036788.244 19.181
v 299366.404 5036782.155 17.88
v 299363.621 5036783.416 19.181
v 299374.182 5036776.703 17.88
v 299377.213 5036775.065 19.181
v 299377.123 5036783.088 19.181
v 299374.777 5036787.505 19.181
v 299405.781 5036770.03 29.062
v 299405.017 5036766.92 29.062
v 299409.537 5036767.541 23.081
v 299407.903 5036772.247 23.081
v 299406.413 5036763.043 23.081
v 299399.734 5036761.249 23.081
v 299400.291 5036765.534 29.062
v 299395.713 5036766.583 23.081
v 299395.638 5036769.429 23.081
v 299397.172 5036771.447 23.081
v 299403.314 5036771.455 29.062
v 299403.284 5036773.979 23.081
v 299405.781 5036770.03 15.0
v 299405.017 5036766.92 15.0
v 299409.537 5036767.541 17.08
v 299407.903 5036772.247 17.08
v 299406.413 5036763.043 17.08
v 299399.734 5036761.249 17.08
v 299400.291 5036765.534 15.0
v 299395.713 5036766.583 17.08
v 299395.638 5036769.429 17.08
v 299397.172 5036771.447 17.08
v 299403.314 5036771.455 15.0
v 299403.284 5036773.979 17.08
v 299405.757 5036777.84 20.141
v 299404.621 5036777.814 23.301
v 299404.738 5036775.67 20.141
v 299403.176 5036777.52 23.301
v 299403.103 5036779.021 23.301
v 299403.463 5036781.299 20.141
v 299400.104 5036779.476 20.141
v 299400.095 5036777.513 20.141
v 299401.497 5036775.619 20.141
v 299403.261 5036775.151 20.141
v 299404.493 5036779.33 23.301
v 299405.084 5036779.828 20.141
v 299405.757 5036777.84 17.0
v 299404.621 5036777.814 15.42
v 299404.738 5036775.67 17.0
v 299403.176 5036777.52 15.42
v 299403.103 5036779.021 15.42
v 299403.463 5036781.299 17.0
v 299400.104 5036779.476 17.0
v 299400.095 5036777.513 17.0
v 299401.497 5036775.619 17.0
v 299403.261 5036775.151 17.0
v 299404.493 5036779.33 15.42
v 299405.084 5036779.828 17.0
v 299403.383 5036787.334 22.641
v 299403.758 5036785.721 27.582
v 299406.597 5036783.839 22.641
v 299398.276 5036784.927 27.582
v 299398.534 5036789.72 22.641
v 299397.587 5036789.464 22.641
v 299404.859 5036783.87 27.582
v 299403.022 5036781.23 22.641
v 299399.714 5036782.751 27.582
v 299398.763 5036781.555 22.641
v 299397.096 5036782.432 22.641
v 299396.526 5036785.03 22.641
v 299403.383 5036787.334 17.72
v 299403.758 5036785.721 15.26
v 299406.597 5036783.839 17.72
v 299398.276 5036784.927 15.26
v 299398.534 5036789.72 17.72
v 299397.587 5036789.464 17.72
v 299404.859 5036783.87 15.26
v 299403.022 5036781.23 17.72
v 299399.714 5036782.751 15.26
v 299398.763 5036781.555 17.72
v 299397.096 5036782.432 17.72
v 299396.526 5036785.03 17.72
v 299409.27 5036795.599 23.721
v 299405.766 5036793.06 25.262
v 299411.168 5036793.111 23.721
v 299409.812 5036784.79 23.721
v 299406.05 5036784.223 23.721
v 299409.155 5036784.184 23.721
v 299400.464 5036792.453 23.721
v 299400.364 5036788.365 23.721
v 299399.401 5036789.949 23.721
v 299409.27 5036795.599 18.34
v 299405.766 5036793.06 17.56
v 299411.168 5036793.111 18.34
v 299409.812 5036784.79 18.34
v 299406.05 5036784.223 18.34
v 299409.155 5036784.184 18.34
v 299400.464 5036792.453 18.34
v 299400.364 5036788.365 18.34
v 299399.401 5036789.949 18.34
v 299400.361 5036794.614 25.161
v 299397.387 5036795.674 21.881
v 299398.499 5036792.396 21.881
v 299401.674 5036800.215 25.161
v 299402.744 5036802.585 21.881
v 299401.229 5036801.957 21.881
v 299405.227 5036802.084 21.881
v 299399.242 5036791.793 21.881
v 299407.215 5036797.807 25.161
v 299407.616 5036794.565 21.881
v 299408.861 5036798.111 21.881
v 299406.349 5036795.287 25.161
v 299400.361 5036794.614 16.96
v 299397.387 5036795.674 18.601
v 299398.499 5036792.396 18.601
v 299401.674 5036800.215 16.96
v 299402.744 5036802.585 18.601
v 299401.229 5036801.957 18.601
v 299405.227 5036802.084 18.601
v 299399.242 5036791.793 18.601
v 299407.215 5036797.807 16.96
v 299407.616 5036794.565 18.601
v 299408.861 5036798.111 18.601
v 299406.349 5036795.287 16.96
v 299406.806 5036812.355 21.501
v 299410.231 5036812.877 24.021
v 299411.423 5036816.904 21.501
v 299410.397 5036811.216 24.021
v 299406.991 5036810.422 21.501
v 299412.684 5036811.228 24.021
v 299412.347 5036809.326 21.501
v 299412.337 5036813.573 24.021
v 299412.181 5036816.809 21.501
v 299414.708 5036814.542 21.501
v 299414.845 5036811.577 21.501
v 299410.136 5036808.726 21.501
v 299406.806 5036812.355 18.501
v 299410.231 5036812.877 17.26
v 299411.423 5036816.904 18.501
v 299410.397 5036811.216 17.26
v 299406.991 5036810.422 18.501
v 299412.684 5036811.228 17.26
v 299412.347 5036809.326 18.501
v 299412.337 5036813.573 17.26
v 299412.181 5036816.809 18.501
v 299414.708 5036814.542 18.501
v 299414.845 5036811.577 18.501
v 299410.136 5036808.726 18.501
v 299377.087 5036806.831 20.341
v 299378.344 5036808.192 22.161
v 299375.926 5036808.518 20.341
v 299382.047 5036808.647 20.341
v 299377.916 5036811.316 22.161
v 299376.267 5036812.319 20.341
v 299379.256 5036807.534 22.161
v 299380.374 5036805.905 20.341
v 299377.48 5036813.338 20.341
v 299381.992 5036811.508 20.341
v 299379.718 5036812.602 22.161
v 299380.224 5036813.747 20.341
v 299377.087 5036806.831 17.7
v 299378.344 5036808.192 16.8
v 299375.926 5036808.518 17.7
v 299382.047 5036808.647 17.7
v 299377.916 5036811.316 16.8
v 299376.267 5036812.319 17.7
v 299379.256 5036807.534 16.8
v 299380.374 5036805.905 17.7
v 299377.48 5036813.338 17.7
v 299381.992 5036811.508 17.7
v 299379.718 5036812.602 16.8
v 299380.224 5036813.747 17.7
v 299384.146 5036813.664 21.641
v 299380.71 5036813.948 19.981
v 299382.569 5036811.91 19.981
v 299381.284 5036816.798 21.641
v 299384.369 5036812.081 19.981
v 299386.916 5036814.699 19.981
v 299382.998 5036818.318 21.641
v 299387.501 5036817.129 19.981
v 299383.362 5036819.644 19.981
v 299380.181 5036817.173 19.981
v 299385.526 5036815.614 21.641
v 299380.635 5036818.109 19.981
v 299384.146 5036813.664 16.66
v 299380.71 5036813.948 17.5
v 299382.569 5036811.91 17.5
v 299381.284 5036816.798 16.66
v 299384.369 5036812.081 17.5
v 299386.916 5036814.699 17.5
v 299382.998 5036818.318 16.66
v 299387.501 5036817.129 17.5
v 299383.362 5036819.644 17.5
v 299380.181 5036817.173 17.5
v 299385.526 5036815.614 16.66
v 299380.635 5036818.109 17.5
v 299377.199 5036820.638 23.401
v 299375.303 5036818.396 20.141
v 299378.935 5036817.469 20.141
v 299373.504 5036821.286 20.141
v 299383.423 5036819.832 20.141
v 299379.76 5036820.711 23.401
v 299378.605 5036822.879 23.401
v 299381.586 5036825.598 20.141
v 299377.559 5036826.747 20.141
v 299373.455 5036822.768 20.141
v 299381.53 5036822.968 23.401
v 299383.121 5036824.144 20.141
v 299377.199 5036820.638 15.22
v 299375.303 5036818.396 16.86
v 299378.935 5036817.469 16.86
v 299373.504 5036821.286 16.86
v 299383.423 5036819.832 16.86
v 299379.76 5036820.711 15.22
v 299378.605 5036822.879 15.22
v 299381.586 5036825.598 16.86
v 299377.559 5036826.747 16.86
v 299373.455 5036822.768 16.86
v 299381.53 5036822.968 15.22
v 299383.121 5036824.144 16.86
v 299385.984 5036831.156 33.423
v 299381.17 5036828.7 28.642
v 299385.699 5036827.117 28.642
v 299384.127 5036834.133 33.423
v 299380.351 5036838.742 28.642
v 299379.201 5036834.134 28.642
v 299387.781 5036834.586 33.423
v 299389.114 5036828.632 28.642
v 299385.994 5036836.443 33.423
v 299386.264 5036841.413 28.642
v 299390.688 5036839.057 28.642
v 299390.976 5036834.032 28.642
v 299385.984 5036831.156 19.601
v 299381.17 5036828.7 22.001
v 299385.699 5036827.117 22.001
v 299384.127 5036834.133 19.601
v 299380.351 5036838.742 22.001
v 299379.201 5036834.134 22.001
v 299387.781 5036834.586 19.601
v 299389.114 5036828.632 22.001
v 299385.994 5036836.443 19.601
v 299386.264 5036841.413 22.001
v 299390.688 5036839.057 22.001
v 299390.976 5036834.032 22.001
v 299410.565 5036775.167 18.441
v 299411.814 5036774.916 17.08
v 299409.972 5036776.374 17.08
v 299408.999 5036774.068 18.441
v 299407.993 5036775.884 17.08
v 299407.093 5036773.362 17.08
v 299408.734 5036776.713 17.08
v 299409.23 5036772.932 18.441
v 299408.547 5036771.753 17.08
v 299409.03 5036771.721 17.08
v 299410.368 5036772.731 17.08
v 299410.145 5036773.19 18.441
v 299410.565 5036775.167 15.06
v 299411.814 5036774.916 15.74
v 299409.972 5036776.374 15.74
v 299408.999 5036774.068 15.06
v 299407.993 5036775.884 15.74
v 299407.093 5036773.362 15.74
v 299408.734 5036776.713 15.74
v 299409.23 5036772.932 15.06
v 299408.547 5036771.753 15.74
v 299409.03 5036771.721 15.74
v 299410.368 5036772.731 15.74
v 299410.145 5036773.19 15.06
v 299423.08 5036767.096 24.581
v 299418.361 5036765.729 29.402
v 299422.532 5036763.465 24.581
v 299416.558 5036761.174 24.581
v 299415.093 5036770.84 29.402
v 299411.845 5036772.791 24.581
v 299409.365 5036770.133 24.581
v 299417.058 5036774.889 24.581
v 299413.593 5036766.023 29.402
v 299411.321 5036763.077 24.581
v 299409.484 5036765.829 24.581
v 299417.389 5036770.825 29.402
v 299423.08 5036767.096 19.761
v 299418.361 5036765.729 17.36
v 299422.532 5036763.465 19.761
v 299416.558 5036761.174 19.761
v 299415.093 5036770.84 17.36
v 299411.845 5036772.791 19.761
v 299409.365 5036770.133 19.761
v 299417.058 5036774.889 19.761
v 299413.593 5036766.023 17.36
v 299411.321 5036763.077 19.761
v 299409.484 5036765.829 19.761
v 299417.389 5036770.825 17.36
v 299444.876 5036733.307 20.081
v 299445.218 5036734.71 26.802
v 299443.788 5036734.73 20.081
v 299447.62 5036736.016 20.081
v 299446.728 5036737.416 20.081
v 299445.952 5036736.13 26.802
v 299445.012 5036736.531 26.802
v 299443.67 5036736.473 20.081
v 299444.834 5036737.857 20.081
v 299445.666 5036734.681 26.802
v 299446.392 5036733.481 20.081
v 299447.771 5036734.576 20.081
v 299444.876 5036733.307 15.0
v 299445.218 5036734.71 15.0
v 299443.788 5036734.73 15.0
v 299447.62 5036736.016 15.0
v 299446.728 5036737.416 15.0
v 299445.952 5036736.13 15.0
v 299445.012 5036736.531 15.0
v 299443.67 5036736.473 15.0
v 299444.834 5036737.857 15.0
v 299445.666 5036734.681 15.0
v 299446.392 5036733.481 15.0
v 299447.771 5036734.576 15.0
v 299405.601 5036819.218 27.182
v 299400.487 5036820.698 22.501
v 299400.253 5036816.071 22.501
v 299410.785 5036814.584 22.501
v 299409.024 5036815.379 27.182
v 299409.212 5036813.416 22.501
v 299407.663 5036820.203 27.182
v 299412.24 5036820.695 22.501
v 299408.882 5036821.89 22.501
v 299406.316 5036815.035 27.182
v 299404.352 5036812.517 22.501
v 299401.585 5036813.816 22.501
v 299405.601 5036819.218 15.5
v 299400.487 5036820.698 17.84
v 299400.253 5036816.071 17.84
v 299410.785 5036814.584 17.84
v 299409.024 5036815.379 15.5
v 299409.212 5036813.416 17.84
v 299407.663 5036820.203 15.5
v 299412.24 5036820.695 17.84
v 299408.882 5036821.89 17.84
v 299406.316 5036815.035 15.5
v 299404.352 5036812.517 17.84
v 299401.585 5036813.816 17.84
v 299406.982 5036822.762 27.122
v 299405.248 5036827.149 27.122
v 299402.378 5036822.57 27.122
v 299404.532 5036820.065 23.481
v 299409.154 5036822.458 23.481
v 299402.075 5036827.609 27.122
v 299397.265 5036823.531 23.481
v 299400.585 5036829.5 23.481
v 299402.968 5036831.21 23.481
v 299405.556 5036829.657 23.481
v 299399.894 5036820.935 23.481
v 299408.987 5036824.93 23.481
v 299406.982 5036822.762 18.02
v 299405.248 5036827.149 18.02
v 299402.378 5036822.57 18.02
v 299404.532 5036820.065 19.841
v 299409.154 5036822.458 19.841
v 299402.075 5036827.609 18.02
v 299397.265 5036823.531 19.841
v 299400.585 5036829.5 19.841
v 299402.968 5036831.21 19.841
v 299405.556 5036829.657 19.841
v 299399.894 5036820.935 19.841
v 299408.987 5036824.93 19.841
v 299397.127 5036838.237 30.802
v 299390.97 5036839.068 24.381
v 299390.692 5036831.489 24.381
v 299395.009 5036842.709 24.381
v 299398.881 5036833.048 30.802
v 299397.549 5036830.534 24.381
v 299397.589 5036842.456 24.381
v 299399.172 5036839.127 30.802
v 299404.169 5036838.302 24.381
v 299400.881 5036836.778 30.802
v 299404.594 5036835.399 24.381
v 299402.761 5036832.748 24.381
v 299397.127 5036838.237 15.0
v 299390.97 5036839.068 17.96
v 299390.692 5036831.489 17.96
v 299395.009 5036842.709 17.96
v 299398.881 5036833.048 15.0
v 299397.549 5036830.534 17.96
v 299397.589 5036842.456 17.96
v 299399.172 5036839.127 15.0
v 299404.169 5036838.302 17.96
v 299400.881 5036836.778 15.0
v 299404.594 5036835.399 17.96
v 299402.761 5036832.748 17.96
v 299406.831 5036860.751 22.181
v 299408.773 5036857.168 19.581
v 299409.783 5036861.326 19.581
v 299403.031 5036856.973 19.581
v 299404.216 5036858.279 22.181
v 299402.365 5036859.176 19.581
v 299407.689 5036863.296 19.581
v 299405.678 5036863.467 19.581
v 299406.416 5036857.082 22.181
v 299406.607 5036855.891 19.581
v 299404.159 5036859.589 22.181
v 299402.28 5036861.45 19.581
v 299406.831 5036860.751 15.68
v 299408.773 5036857.168 16.98
v 299409.783 5036861.326 16.98
v 299403.031 5036856.973 16.98
v 299404.216 5036858.279 15.68
v 299402.365 5036859.176 16.98
v 299407.689 5036863.296 16.98
v 299405.678 5036863.467 16.98
v 299406.416 5036857.082 15.68
v 299406.607 5036855.891 16.98
v 299404.159 5036859.589 15.68
v 299402.28 5036861.45 16.98
v 299409.492 5036863.332 19.941
v 299408.719 5036864.686 23.041
v 299408.389 5036863.023 19.941
v 299410.216 5036866.712 19.941
v 299409.25 5036866.054 23.041
v 299410.44 5036866.156 19.941
v 299408.186 5036865.422 23.041
v 299408.174 5036867.969 19.941
v 299406.586 5036866.691 19.941
v 299406.379 5036864.76 19.941
v 299407.093 5036863.43 19.941
v 299409.465 5036865.358 23.041
v 299409.492 5036863.332 16.86
v 299408.719 5036864.686 15.3
v 299408.389 5036863.023 16.86
v 299410.216 5036866.712 16.86
v 299409.25 5036866.054 15.3
v 299410.44 5036866.156 16.86
v 299408.186 5036865.422 15.3
v 299408.174 5036867.969 16.86
v 299406.586 5036866.691 16.86
v 299406.379 5036864.76 16.86
v 299407.093 5036863.43 16.86
v 299409.465 5036865.358 15.3
v 299414.772 5036850.509 23.321
v 299417.799 5036852.216 20.501
v 299412.773 5036853.849 20.501
v 299418.199 5036849.602 20.501
v 299412.925 5036850.89 23.321
v 299410.33 5036849.085 23.321
v 299407.949 5036850.397 20.501
v 299414.299 5036843.508 23.321
v 299416.941 5036842.402 20.501
v 299413.512 5036840.495 20.501
v 299410.439 5036842.302 20.501
v 299408.395 5036846.3 20.501
v 299414.772 5036850.509 16.24
v 299417.799 5036852.216 17.66
v 299412.773 5036853.849 17.66
v 299418.199 5036849.602 17.66
v 299412.925 5036850.89 16.24
v 299410.33 5036849.085 16.24
v 299407.949 5036850.397 17.66
v 299414.299 5036843.508 16.24
v 299416.941 5036842.402 17.66
v 299413.512 5036840.495 17.66
v 299410.439 5036842.302 17.66
v 299408.395 5036846.3 17.66
v 299389.863 5036858.712 22.541
v 299392.797 5036856.906 27.322
v 299392.141 5036860.351 22.541
v 299391.64 5036852.44 27.322
v 299390.338 5036845.555 22.541
v 299394.194 5036859.981 22.541
v 299398.451 5036856.956 22.541
v 299393.969 5036846.071 22.541
v 299390.889 5036845.238 22.541
v 299395.256 5036853.601 27.322
v 299397.23 5036850.465 22.541
v 299394.21 5036851.817 27.322
v 299389.863 5036858.712 17.76
v 299392.797 5036856.906 15.36
v 299392.141 5036860.351 17.76
v 299391.64 5036852.44 15.36
v 299390.338 5036845.555 17.76
v 299394.194 5036859.981 17.76
v 299398.451 5036856.956 17.76
v 299393.969 5036846.071 17.76
v 299390.889 5036845.238 17.76
v 299395.256 5036853.601 15.36
v 299397.23 5036850.465 17.76
v 299394.21 5036851.817 15.36
v 299395.877 5036875.877 22.681
v 299399.183 5036875.32 25.422
v 299396.407 5036878.802 22.681
v 299398.928 5036871.776 22.681
v 299402.4 5036876.619 25.422
v 299401.171 5036877.47 25.422
v 299402.729 5036879.848 22.681
v 299397.907 5036879.98 22.681
v 299400.632 5036873.116 25.422
v 299401.215 5036870.817 22.681
v 299404.872 5036873.346 22.681
v 299403.963 5036878.757 22.681
v 299395.877 5036875.877 18.961
v 299399.183 5036875.32 17.6
v 299396.407 5036878.802 18.961
v 299398.928 5036871.776 18.961
v 299402.4 5036876.619 17.6
v 299401.171 5036877.47 17.6
v 299402.729 5036879.848 18.961
v 299397.907 5036879.98 18.961
v 299400.632 5036873.116 17.6
v 299401.215 5036870.817 18.961
v 299404.872 5036873.346 18.961
v 299403.963 5036878.757 18.961
v 299400.767 5036881.835 26.082
v 299401.883 5036881.381 23.541
v 299402.796 5036884.017 23.541
v 299400.642 5036880.39 23.541
v 299400.102 5036884.613 26.082
v 299399.146 5036882.937 26.082
v 299401.431 5036885.953 23.541
v 299397.978 5036888.274 23.541
v 299396.819 5036882.559 23.541
v 299397.855 5036880.231 23.541
v 299401.343 5036884.882 26.082
v 299396.654 5036887.339 23.541
v 299400.767 5036881.835 17.78
v 299401.883 5036881.381 19.041
v 299402.796 5036884.017 19.041
v 299400.642 5036880.39 19.041
v 299400.102 5036884.613 17.78
v 299399.146 5036882.937 17.78
v 299401.431 5036885.953 19.041
v 299397.978 5036888.274 19.041
v 299396.819 5036882.559 19.041
v 299397.855 5036880.231 19.041
v 299401.343 5036884.882 17.78
v 299396.654 5036887.339 19.041
v 299427.439 5036814.002 24.661
v 299425.938 5036809.817 20.541
v 299428.066 5036809.363 20.541
v 299423.964 5036814.257 20.541
v 299431.482 5036810.289 20.541
v 299431.937 5036812.578 20.541
v 299426.385 5036817.987 20.541
v 299427.994 5036816.807 24.661
v 299429.209 5036818.803 20.541
v 299426.465 5036816.284 24.661
v 299428.966 5036815.572 24.661
v 299431.537 5036815.291 20.541
v 299427.439 5036814.002 15.0
v 299425.938 5036809.817 16.42
v 299428.066 5036809.363 16.42
v 299423.964 5036814.257 16.42
v 299431.482 5036810.289 16.42
v 299431.937 5036812.578 16.42
v 299426.385 5036817.987 16.42
v 299427.994 5036816.807 15.0
v 299429.209 5036818.803 16.42
v 299426.465 5036816.284 15.0
v 299428.966 5036815.572 15.0
v 299431.537 5036815.291 16.42
v 299451.966 5036756.234 28.382
v 299447.873 5036758.117 22.581
v 299448.898 5036752.259 22.581
v 299454.658 5036762.937 22.581
v 299454.656 5036759.852 28.382
v 299457.548 5036761.569 22.581
v 299453.382 5036752.205 22.581
v 299458.326 5036754.953 22.581
v 299455.013 5036758.923 28.382
v 299458.472 5036759.661 22.581
v 299451.354 5036759.647 28.382
v 299449.533 5036761.339 22.581
v 299451.966 5036756.234 15.0
v 299447.873 5036758.117 16.8
v 299448.898 5036752.259 16.8
v 299454.658 5036762.937 16.8
v 299454.656 5036759.852 15.0
v 299457.548 5036761.569 16.8
v 299453.382 5036752.205 16.8
v 299458.326 5036754.953 16.8
v 299455.013 5036758.923 15.0
v 299458.472 5036759.661 16.8
v 299451.354 5036759.647 15.0
v 299449.533 5036761.339 16.8
v 299460.803 5036741.292 27.702
v 299461.828 5036738.769 24.021
v 299466.286 5036745.085 24.021
v 299458.726 5036741.471 27.702
v 299453.86 5036741.498 24.021
v 299454.852 5036738.315 24.021
v 299462.13 5036744.472 27.702
v 299464.799 5036746.465 24.021
v 299461.236 5036747.574 24.021
v 299456.897 5036737.549 24.021
v 299458.543 5036743.934 27.702
v 299458.026 5036746.588 24.021
v 299460.803 5036741.292 18.18
v 299461.828 5036738.769 20.001
v 299466.286 5036745.085 20.001
v 299458.726 5036741.471 18.18
v 299453.86 5036741.498 20.001
v 299454.852 5036738.315 20.001
v 299462.13 5036744.472 18.18
v 299464.799 5036746.465 20.001
v 299461.236 5036747.574 20.001
v 299456.897 5036737.549 20.001
v 299458.543 5036743.934 18.18
v 299458.026 5036746.588 20.001
v 299436.994 5036756.962 18.32
v 299438.597 5036757.059 17.08
v 299436.835 5036758.454 17.08
v 299435.952 5036757.918 17.08
v 299436.481 5036756.211 18.32
v 299437.319 5036756.382 18.32
v 299439.018 5036755.826 17.08
v 299436.102 5036755.45 17.08
v 299437.014 5036755.544 18.32
v 299437.438 5036753.988 17.08
v 299437.779 5036753.998 17.08
v 299438.975 5036754.879 17.08
v 299436.994 5036756.962 15.24
v 299438.597 5036757.059 15.86
v 299436.835 5036758.454 15.86
v 299435.952 5036757.918 15.86
v 299436.481 5036756.211 15.24
v 299437.319 5036756.382 15.24
v 299439.018 5036755.826 15.86
v 299436.102 5036755.45 15.86
v 299437.014 5036755.544 15.24
v 299437.438 5036753.988 15.86
v 299437.779 5036753.998 15.86
v 299438.975 5036754.879 15.86
v 299437.767 5036729.395 20.241
v 299441.253 5036732.515 22.621
v 299436.878 5036733.746 20.241
v 299440.276 5036728.683 20.241
v 299438.815 5036735.788 20.241
v 299442.502 5036731.709 22.621
v 299441.756 5036728.74 20.241
v 299443.835 5036730.604 20.241
v 299443.404 5036733.3 22.621
v 299444.602 5036733.534 20.241
v 299443.604 5036735.083 20.241
v 299442.578 5036733.831 22.621
v 299437.767 5036729.395 17.84
v 299441.253 5036732.515 16.64
v 299436.878 5036733.746 17.84
v 299440.276 5036728.683 17.84
v 299438.815 5036735.788 17.84
v 299442.502 5036731.709 16.64
v 299441.756 5036728.74 17.84
v 299443.835 5036730.604 17.84
v 299443.404 5036733.3 16.64
v 299444.602 5036733.534 17.84
v 299443.604 5036735.083 17.84
v 299442.578 5036733.831 16.64
v 299439.159 5036739.437 19.061
v 299442.319 5036737.582 22.501
v 299441.537 5036740.314 19.061
v 299441.887 5036734.911 22.501
v 299441.375 5036733.686 19.061
v 299441.798 5036733.567 19.061
v 299439.126 5036735.856 19.061
v 299443.342 5036735.119 19.061
v 299442.847 5036736.809 22.501
v 299444.144 5036737.389 19.061
v 299441.406 5036736.791 22.501
v 299443.752 5036738.114 19.061
v 299439.159 5036739.437 15.62
v 299442.319 5036737.582 15.0
v 299441.537 5036740.314 15.62
v 299441.887 5036734.911 15.0
v 299441.375 5036733.686 15.62
v 299441.798 5036733.567 15.62
v 299439.126 5036735.856 15.62
v 299443.342 5036735.119 15.62
v 299442.847 5036736.809 15.0
v 299444.144 5036737.389 15.62
v 299441.406 5036736.791 15.0
v 299443.752 5036738.114 15.62
v 299437.766 5036744.528 22.381
v 299439.335 5036747.489 20.841
v 299437.895 5036746.941 20.841
v 299433.41 5036740.085 20.841
v 299437.235 5036743.072 22.381
v 299440.686 5036742.032 22.381
v 299442.119 5036746.585 20.841
v 299443.315 5036744.14 20.841
v 299437.865 5036740.602 22.381
v 299436.702 5036737.098 20.841
v 299434.273 5036737.552 20.841
v 299441.501 5036741.825 20.841
v 299437.766 5036744.528 16.84
v 299439.335 5036747.489 17.62
v 299437.895 5036746.941 17.62
v 299433.41 5036740.085 17.62
v 299437.235 5036743.072 16.84
v 299440.686 5036742.032 16.84
v 299442.119 5036746.585 17.62
v 299443.315 5036744.14 17.62
v 299437.865 5036740.602 16.84
v 299436.702 5036737.098 17.62
v 299434.273 5036737.552 17.62
v 299441.501 5036741.825 17.62
v 299394.076 5036710.387 19.441
v 299392.651 5036709.656 20.881
v 299393.13 5036708.269 19.441
v 299391.071 5036711.622 20.881
v 299391.633 5036713.183 19.441
v 299389.515 5036712.312 19.441
v 299389.871 5036709.141 19.441
v 299391.748 5036709.834 20.881
v 299391.129 5036708.181 19.441
v 299392.172 5036711.143 20.881
v 299393.107 5036712.233 19.441
v 299389.205 5036711.386 19.441
v 299394.076 5036710.387 17.2
v 299392.651 5036709.656 16.46
v 299393.13 5036708.269 17.2
v 299391.071 5036711.622 16.46
v 299391.633 5036713.183 17.2
v 299389.515 5036712.312 17.2
v 299389.871 5036709.141 17.2
v 299391.748 5036709.834 16.46
v 299391.129 5036708.181 17.2
v 299392.172 5036711.143 16.46
v 299393.107 5036712.233 17.2
v 299389.205 5036711.386 17.2
v 299398.494 5036709.498 19.021
v 299398.648 5036708.046 17.8
v 299399.479 5036710.56 17.8
v 299399.178 5036711.345 17.8
v 299394.858 5036709.769 17.8
v 299396.705 5036709.085 19.021
v 299394.852 5036710.657 17.8
v 299398.34 5036709.094 19.021
v 299397.443 5036711.188 19.021
v 299398.484 5036712.061 17.8
v 299396.579 5036712.147 17.8
v 299396.268 5036708.516 17.8
v 299398.494 5036709.498 15.96
v 299398.648 5036708.046 16.56
v 299399.479 5036710.56 16.56
v 299399.178 5036711.345 16.56
v 299394.858 5036709.769 16.56
v 299396.705 5036709.085 15.96
v 299394.852 5036710.657 16.56
v 299398.34 5036709.094 15.96
v 299397.443 5036711.188 15.96
v 299398.484 5036712.061 16.56
v 299396.579 5036712.147 16.56
v 299396.268 5036708.516 16.56
v 299412.119 5036711.674 18.761
v 299411.153 5036709.924 20.281
v 299412.898 5036710.186 18.761
v 299409.823 5036712.334 18.761
v 299408.147 5036711.759 18.761
v 299409.129 5036711.116 20.281
v 299407.121 5036709.075 18.761
v 299412.66 5036708.946 18.761
v 299410.536 5036707.616 18.761
v 299408.861 5036708.803 20.281
v 299409.285 5036708.365 20.281
v 299408.586 5036707.637 18.761
v 299412.119 5036711.674 17.08
v 299411.153 5036709.924 16.32
v 299412.898 5036710.186 17.08
v 299409.823 5036712.334 17.08
v 299408.147 5036711.759 17.08
v 299409.129 5036711.116 16.32
v 299407.121 5036709.075 17.08
v 299412.66 5036708.946 17.08
v 299410.536 5036707.616 17.08
v 299408.861 5036708.803 16.32
v 299409.285 5036708.365 16.32
v 299408.586 5036707.637 17.08
v 299415.686 5036708.157 21.121
v 299414.199 5036707.574 19.281
v 299416.565 5036707.225 19.281
v 299413.544 5036709.13 19.281
v 299416.025 5036709.326 21.121
v 299417.034 5036712.0 19.281
v 299414.626 5036711.978 19.281
v 299414.002 5036711.574 19.281
v 299418.617 5036708.446 19.281
v 299417.037 5036708.192 21.121
v 299417.244 5036709.299 21.121
v 299419.41 5036710.7 19.281
v 299415.686 5036708.157 16.5
v 299414.199 5036707.574 17.42
v 299416.565 5036707.225 17.42
v 299413.544 5036709.13 17.42
v 299416.025 5036709.326 16.5
v 299417.034 5036712.0 17.42
v 299414.626 5036711.978 17.42
v 299414.002 5036711.574 17.42
v 299418.617 5036708.446 17.42
v 299417.037 5036708.192 16.5
v 299417.244 5036709.299 16.5
v 299419.41 5036710.7 17.42
v 299434.051 5036707.35 24.321
v 299433.759 5036704.614 19.121
v 299436.681 5036709.447 19.121
v 299435.716 5036711.147 19.121
v 299430.272 5036710.306 24.321
v 299430.745 5036705.359 19.121
v 299431.92 5036706.194 24.321
v 299429.514 5036712.886 19.121
v 299431.084 5036713.293 19.121
v 299433.024 5036705.401 24.321
v 299432.27 5036703.815 19.121
v 299429.19 5036710.899 19.121
v 299434.051 5036707.35 15.0
v 299433.759 5036704.614 15.0
v 299436.681 5036709.447 15.0
v 299435.716 5036711.147 15.0
v 299430.272 5036710.306 15.0
v 299430.745 5036705.359 15.0
v 299431.92 5036706.194 15.0
v 299429.514 5036712.886 15.0
v 299431.084 5036713.293 15.0
v 299433.024 5036705.401 15.0
v 299432.27 5036703.815 15.0
v 299429.19 5036710.899 15.0
v 299386.046 5036710.956 22.881
v 299386.209 5036708.966 20.421
v 299387.255 5036710.601 20.421
v 299384.351 5036712.733 22.881
v 299383.2 5036709.963 20.421
v 299384.267 5036709.422 22.881
v 299384.241 5036708.459 20.421
v 299383.295 5036709.006 20.421
v 299385.544 5036712.783 22.881
v 299385.712 5036713.569 20.421
v 299384.485 5036713.946 20.421
v 299383.995 5036713.517 20.421
v 299386.046 5036710.956 16.7
v 299386.209 5036708.966 17.94
v 299387.255 5036710.601 17.94
v 299384.351 5036712.733 16.7
v 299383.2 5036709.963 17.94
v 299384.267 5036709.422 16.7
v 299384.241 5036708.459 17.94
v 299383.295 5036709.006 17.94
v 299385.544 5036712.783 16.7
v 299385.712 5036713.569 17.94
v 299384.485 5036713.946 17.94
v 299383.995 5036713.517 17.94
v 299376.245 5036709.391 22.781
v 299373.928 5036710.104 27.322
v 299369.199 5036708.603 22.781
v 299372.082 5036713.322 27.322
v 299367.765 5036710.609 22.781
v 299368.299 5036714.434 22.781
v 299374.977 5036711.44 27.322
v 299374.602 5036716.53 22.781
v 299369.205 5036715.745 22.781
v 299370.473 5036716.674 22.781
v 299372.665 5036714.063 27.322
v 299373.444 5036717.359 22.781
v 299376.245 5036709.391 18.24
v 299373.928 5036710.104 15.98
v 299369.199 5036708.603 18.24
v 299372.082 5036713.322 15.98
v 299367.765 5036710.609 18.24
v 299368.299 5036714.434 18.24
v 299374.977 5036711.44 15.98
v 299374.602 5036716.53 18.24
v 299369.205 5036715.745 18.24
v 299370.473 5036716.674 18.24
v 299372.665 5036714.063 15.98
v 299373.444 5036717.359 18.24

o 63907176-29e6-4990-81fc-238b71bcf93f_1 SolitaryVegetationObject
g lod_cfd
f 1 2 3
f 4 5 6
f 7 1 4
f 7 4 6
f 8 7 6
f 7 8 9
f 2 7 9
f 1 7 2
f 10 1 3
f 1 11 4
f 11 5 4
f 5 11 12
f 11 10 12
f 10 11 1
f 13 14 15
f 16 17 18
f 19 13 16
f 19 16 18
f 20 19 18
f 19 20 21
f 14 19 21
f 13 19 14
f 22 13 15
f 13 23 16
f 23 17 16
f 17 23 24
f 23 22 24
f 22 23 13
f 3 2 14
f 3 14 15
f 2 9 21
f 2 21 14
f 9 8 20
f 9 20 21
f 8 6 18
f 8 18 20
f 6 5 17
f 6 17 18
f 5 12 24
f 5 24 17
f 12 10 22
f 12 22 24
f 10 3 15
f 10 15 22

o 63907176-29e6-4990-81fc-238b71bcf93f_2 SolitaryVegetationObject
g lod_cfd
f 25 26 27
f 28 29 30
f 31 25 27
f 28 31 29
f 31 28 25
f 32 33 34
f 26 32 34
f 32 26 25
f 28 35 25
f 35 32 25
f 35 28 30
f 36 35 30
f 32 35 33
f 35 36 33
f 37 38 39
f 40 41 42
f 43 37 39
f 40 43 41
f 43 40 37
f 44 45 46
f 38 44 46
f 44 38 37
f 40 47 37
f 47 44 37
f 47 40 42
f 48 47 42
f 44 47 45
f 47 48 45
f 27 26 38
f 27 38 39
f 26 34 46
f 26 46 38
f 34 33 45
f 34 45 46
f 33 36 48
f 33 48 45
f 36 30 42
f 36 42 48
f 30 29 41
f 30 41 42
f 29 31 43
f 29 43 41
f 31 27 39
f 31 39 43

o 63907176-29e6-4990-81fc-238b71bcf93f_3 SolitaryVegetationObject
g lod_cfd
f 49 50 51
f 50 52 51
f 53 54 55
f 52 53 55
f 53 52 50
f 54 53 56
f 57 58 59
f 50 57 59
f 49 57 50
f 60 50 59
f 60 53 50
f 58 60 59
f 60 58 56
f 53 60 56
f 61 62 63
f 62 64 63
f 65 66 67
f 64 65 67
f 65 64 62
f 66 65 68
f 69 70 71
f 62 69 71
f 61 69 62
f 72 62 71
f 72 65 62
f 70 72 71
f 72 70 68
f 65 72 68
f 51 52 64
f 51 64 63
f 52 55 67
f 52 67 64
f 55 54 66
f 55 66 67
f 54 56 68
f 54 68 66
f 56 58 70
f 56 70 68
f 58 57 69
f 58 69 70
f 57 49 61
f 57 61 69
f 49 51 63
f 49 63 61

o 63907176-29e6-4990-81fc-238b71bcf93f_5 SolitaryVegetationObject
g lod_cfd
f 73 74 75
f 74 76 75
f 76 77 75
f 78 73 79
f 73 78 74
f 78 76 74
f 80 78 79
f 78 80 81
f 82 81 83
f 82 78 81
f 78 82 76
f 76 82 77
f 84 82 83
f 77 82 84
f 85 86 87
f 86 88 87
f 88 89 87
f 90 85 91
f 85 90 86
f 90 88 86
f 92 90 91
f 90 92 93
f 94 93 95
f 94 90 93
f 90 94 88
f 88 94 89
f 96 94 95
f 89 94 96
f 83 81 93
f 83 93 95
f 81 80 92
f 81 92 93
f 80 79 91
f 80 91 92
f 79 73 85
f 79 85 91
f 73 75 87
f 73 87 85
f 75 77 89
f 75 89 87
f 77 84 96
f 77 96 89
f 84 83 95
f 84 95 96

o 63907176-29e6-4990-81fc-238b71bcf93f_6 SolitaryVegetationObject
g lod_cfd
f 97 98 99
f 100 101 102
f 101 100 103
f 104 97 99
f 97 104 105
f 100 106 103
f 106 97 103
f 106 100 107
f 98 106 107
f 97 106 98
f 97 108 103
f 108 97 105
f 108 101 103
f 101 108 105
f 109 110 111
f 112 113 114
f 113 112 115
f 116 109 111
f 109 116 117
f 112 118 115
f 118 109 115
f 118 112 119
f 110 118 119
f 109 118 110
f 109 120 115
f 120 109 117
f 120 113 115
f 113 120 117
f 99 98 110
f 99 110 111
f 98 107 119
f 98 119 110
f 107 100 112
f 107 112 119
f 100 102 114
f 100 114 112
f 102 101 113
f 102 113 114
f 101 105 117
f 101 117 113
f 105 104 116
f 105 116 117
f 104 99 111
f 104 111 116

o 63907176-29e6-4990-81fc-238b71bcf93f_7 SolitaryVegetationObject
g lod_cfd
f 121 122 123
f 124 125 126
f 125 124 123
f 122 125 123
f 127 128 129
f 128 130 129
f 121 131 122
f 131 128 122
f 131 130 128
f 128 132 122
f 132 125 122
f 125 132 126
f 132 127 126
f 127 132 128
f 133 134 135
f 136 137 138
f 137 136 135
f 134 137 135
f 139 140 141
f 140 142 141
f 133 143 134
f 143 140 134
f 143 142 140
f 140 144 134
f 144 137 134
f 137 144 138
f 144 139 138
f 139 144 140
f 129 130 142
f 129 142 141
f 130 131 143
f 130 143 142
f 131 121 133
f 131 133 143
f 121 123 135
f 121 135 133
f 123 124 136
f 123 136 135
f 124 126 138
f 124 138 136
f 126 127 139
f 126 139 138
f 127 129 141
f 127 141 139

o 63907176-29e6-4990-81fc-238b71bcf93f_8 SolitaryVegetationObject
g lod_cfd
f 145 146 147
f 146 145 148
f 149 145 150
f 151 150 152
f 151 149 150
f 150 153 152
f 153 154 152
f 145 155 148
f 155 145 149
f 145 156 150
f 156 153 150
f 156 145 147
f 154 156 147
f 153 156 154
f 157 158 159
f 158 157 160
f 161 157 162
f 163 162 164
f 163 161 162
f 162 165 164
f 165 166 164
f 157 167 160
f 167 157 161
f 157 168 162
f 168 165 162
f 168 157 159
f 166 168 159
f 165 168 166
f 148 155 167
f 148 167 160
f 155 149 161
f 155 161 167
f 149 151 163
f 149 163 161
f 151 152 164
f 151 164 163
f 152 154 166
f 152 166 164
f 154 147 159
f 154 159 166
f 147 146 158
f 147 158 159
f 146 148 160
f 146 160 158

o 63907176-29e6-4990-81fc-238b71bcf93f_9 SolitaryVegetationObject
g lod_cfd
f 169 170 171
f 170 169 172
f 170 173 171
f 174 175 176
f 177 174 176
f 174 177 178
f 179 170 178
f 177 179 178
f 179 173 170
f 180 174 178
f 174 180 175
f 170 180 178
f 180 170 172
f 175 180 172
f 181 182 183
f 182 181 184
f 182 185 183
f 186 187 188
f 189 186 188
f 186 189 190
f 191 182 190
f 189 191 190
f 191 185 182
f 192 186 190
f 186 192 187
f 182 192 190
f 192 182 184
f 187 192 184
f 176 175 187
f 176 187 188
f 175 172 184
f 175 184 187
f 172 169 181
f 172 181 184
f 169 171 183
f 169 183 181
f 171 173 185
f 171 185 183
f 173 179 191
f 173 191 185
f 179 177 189
f 179 189 191
f 177 176 188
f 177 188 189

o 63907176-29e6-4990-81fc-238b71bcf93f_10 SolitaryVegetationObject
g lod_cfd
f 193 194 195
f 196 193 195
f 197 198 199
f 197 199 200
f 194 197 200
f 197 194 193
f 196 201 193
f 201 196 202
f 203 197 193
f 197 203 198
f 201 203 193
f 198 203 204
f 203 202 204
f 203 201 202
f 205 206 207
f 208 205 207
f 209 210 211
f 209 211 212
f 206 209 212
f 209 206 205
f 208 213 205
f 213 208 214
f 215 209 205
f 209 215 210
f 213 215 205
f 210 215 216
f 215 214 216
f 215 213 214
f 204 202 214
f 204 214 216
f 202 196 208
f 202 208 214
f 196 195 207
f 196 207 208
f 195 194 206
f 195 206 207
f 194 200 212
f 194 212 206
f 200 199 211
f 200 211 212
f 199 198 210
f 199 210 211
f 198 204 216
f 198 216 210

o 63907176-29e6-4990-81fc-238b71bcf93f_11 SolitaryVegetationObject
g lod_cfd
f 217 218 219
f 220 221 222
f 220 223 221
f 218 224 221
f 221 224 222
f 224 225 222
f 225 224 226
f 223 227 221
f 227 218 221
f 218 227 219
f 224 228 226
f 228 224 218
f 228 217 226
f 228 218 217
f 229 230 231
f 232 233 234
f 232 235 233
f 230 236 233
f 233 236 234
f 236 237 234
f 237 236 238
f 235 239 233
f 239 230 233
f 230 239 231
f 236 240 238
f 240 236 230
f 240 229 238
f 240 230 229
f 219 227 239
f 219 239 231
f 227 223 235
f 227 235 239
f 223 220 232
f 223 232 235
f 220 222 234
f 220 234 232
f 222 225 237
f 222 237 234
f 225 226 238
f 225 238 237
f 226 217 229
f 226 229 238
f 217 219 231
f 217 231 229

o 63907176-29e6-4990-81fc-238b71bcf93f_12 SolitaryVegetationObject
g lod_cfd
f 241 242 243
f 242 244 243
f 244 245 243
f 245 244 246
f 244 247 246
f 247 244 248
f 249 244 242
f 244 249 248
f 250 249 242
f 250 241 251
f 250 242 241
f 252 250 251
f 250 252 249
f 249 252 248
f 253 254 255
f 254 256 255
f 256 257 255
f 257 256 258
f 256 259 258
f 259 256 260
f 261 256 254
f 256 261 260
f 262 261 254
f 262 253 263
f 262 254 253
f 264 262 263
f 262 264 261
f 261 264 260
f 251 241 253
f 251 253 263
f 241 243 255
f 241 255 253
f 243 245 257
f 243 257 255
f 245 246 258
f 245 258 257
f 246 247 259
f 246 259 258
f 247 248 260
f 247 260 259
f 248 252 264
f 248 264 260
f 252 251 263
f 252 263 264

o 63907176-29e6-4990-81fc-238b71bcf93f_13 SolitaryVegetationObject
g lod_cfd
f 265 266 267
f 266 268 267
f 269 270 271
f 272 265 267
f 265 272 273
f 265 274 266
f 274 275 269
f 274 265 273
f 275 274 273
f 274 276 266
f 276 274 269
f 276 269 271
f 268 276 271
f 276 268 266
f 277 278 279
f 278 280 279
f 281 282 283
f 284 277 279
f 277 284 285
f 277 286 278
f 286 287 281
f 286 277 285
f 287 286 285
f 286 288 278
f 288 286 281
f 288 281 283
f 280 288 283
f 288 280 278
f 271 270 282
f 271 282 283
f 270 269 281
f 270 281 282
f 269 275 287
f 269 287 281
f 275 273 285
f 275 285 287
f 273 272 284
f 273 284 285
f 272 267 279
f 272 279 284
f 267 268 280
f 267 280 279
f 268 271 283
f 268 283 280

o 63907176-29e6-4990-81fc-238b71bcf93f_14 SolitaryVegetationObject
g lod_cfd
f 289 290 291
f 289 292 290
f 293 294 295
f 294 296 295
f 296 294 289
f 297 289 291
f 297 296 289
f 294 298 289
f 292 298 299
f 298 292 289
f 300 293 299
f 300 294 293
f 298 300 299
f 300 298 294
f 301 302 303
f 301 304 302
f 305 306 307
f 306 308 307
f 308 306 301
f 309 301 303
f 309 308 301
f 306 310 301
f 304 310 311
f 310 304 301
f 312 305 311
f 312 306 305
f 310 312 311
f 312 310 306
f 295 296 308
f 295 308 307
f 296 297 309
f 296 309 308
f 297 291 303
f 297 303 309
f 291 290 302
f 291 302 303
f 290 292 304
f 290 304 302
f 292 299 311
f 292 311 304
f 299 293 305
f 299 305 311
f 293 295 307
f 293 307 305

o 63907176-29e6-4990-81fc-238b71bcf93f_15 SolitaryVegetationObject
g lod_cfd
f 313 314 315
f 314 313 316
f 317 318 316
f 318 314 316
f 314 319 315
f 320 319 314
f 321 320 314
f 321 322 320
f 318 321 314
f 323 321 318
f 323 317 324
f 323 318 317
f 322 323 324
f 321 323 322
f 325 326 327
f 326 325 328
f 329 330 328
f 330 326 328
f 326 331 327
f 332 331 326
f 333 332 326
f 333 334 332
f 330 333 326
f 335 333 330
f 335 329 336
f 335 330 329
f 334 335 336
f 333 335 334
f 324 317 329
f 324 329 336
f 317 316 328
f 317 328 329
f 316 313 325
f 316 325 328
f 313 315 327
f 313 327 325
f 315 319 331
f 315 331 327
f 319 320 332
f 319 332 331
f 320 322 334
f 320 334 332
f 322 324 336
f 322 336 334

o 63907176-29e6-4990-81fc-238b71bcf93f_16 SolitaryVegetationObject
g lod_cfd
f 337 338 339
f 338 337 340
f 341 338 340
f 338 342 339
f 341 343 344
f 343 341 340
f 345 341 344
f 342 346 339
f 347 345 348
f 345 347 341
f 346 347 348
f 347 346 342
f 341 347 338
f 347 342 338
f 349 350 351
f 350 349 352
f 353 350 352
f 350 354 351
f 353 355 356
f 355 353 352
f 357 353 356
f 354 358 351
f 359 357 360
f 357 359 353
f 358 359 360
f 359 358 354
f 353 359 350
f 359 354 350
f 344 343 355
f 344 355 356
f 343 340 352
f 343 352 355
f 340 337 349
f 340 349 352
f 337 339 351
f 337 351 349
f 339 346 358
f 339 358 351
f 346 348 360
f 346 360 358
f 348 345 357
f 348 357 360
f 345 344 356
f 345 356 357

o 63907176-29e6-4990-81fc-238b71bcf93f_17 SolitaryVegetationObject
g lod_cfd
f 361 362 363
f 364 361 363
f 364 365 361
f 362 366 363
f 367 368 369
f 365 370 361
f 370 368 361
f 368 370 369
f 371 362 361
f 368 371 361
f 366 371 372
f 371 366 362
f 371 367 372
f 367 371 368
f 373 374 375
f 376 373 375
f 376 377 373
f 374 378 375
f 379 380 381
f 377 382 373
f 382 380 373
f 380 382 381
f 383 374 373
f 380 383 373
f 378 383 384
f 383 378 374
f 383 379 384
f 379 383 380
f 369 370 382
f 369 382 381
f 370 365 377
f 370 377 382
f 365 364 376
f 365 376 377
f 364 363 375
f 364 375 376
f 363 366 378
f 363 378 375
f 366 372 384
f 366 384 378
f 372 367 379
f 372 379 384
f 367 369 381
f 367 381 379

o 63907176-29e6-4990-81fc-238b71bcf93f_19 SolitaryVegetationObject
g lod_cfd
f 385 386 387
f 388 385 387
f 389 390 391
f 390 392 393
f 392 388 393
f 388 392 385
f 392 389 385
f 389 392 390
f 385 394 386
f 394 395 386
f 389 394 385
f 396 389 391
f 396 394 389
f 394 396 395
f 397 398 399
f 400 397 399
f 401 402 403
f 402 404 405
f 404 400 405
f 400 404 397
f 404 401 397
f 401 404 402
f 397 406 398
f 406 407 398
f 401 406 397
f 408 401 403
f 408 406 401
f 406 408 407
f 391 390 402
f 391 402 403
f 390 393 405
f 390 405 402
f 393 388 400
f 393 400 405
f 388 387 399
f 388 399 400
f 387 386 398
f 387 398 399
f 386 395 407
f 386 407 398
f 395 396 408
f 395 408 407
f 396 391 403
f 396 403 408

o 63907176-29e6-4990-81fc-238b71bcf93f_20 SolitaryVegetationObject
g lod_cfd
f 409 410 411
f 410 409 412
f 413 410 412
f 414 413 412
f 414 415 413
f 416 417 411
f 410 416 411
f 416 418 417
f 417 418 419
f 418 410 413
f 418 416 410
f 418 420 419
f 415 418 413
f 420 418 415
f 421 422 423
f 422 421 424
f 425 422 424
f 426 425 424
f 426 427 425
f 428 429 423
f 422 428 423
f 428 430 429
f 429 430 431
f 430 422 425
f 430 428 422
f 430 432 431
f 427 430 425
f 432 430 427
f 419 420 432
f 419 432 431
f 420 415 427
f 420 427 432
f 415 414 426
f 415 426 427
f 414 412 424
f 414 424 426
f 412 409 421
f 412 421 424
f 409 411 423
f 409 423 421
f 411 417 429
f 411 429 423
f 417 419 431
f 417 431 429

o 63907176-29e6-4990-81fc-238b71bcf93f_21 SolitaryVegetationObject
g lod_cfd
f 433 434 435
f 436 437 438
f 439 433 438
f 433 439 434
f 437 439 438
f 434 440 435
f 441 440 434
f 442 441 434
f 442 443 444
f 443 442 434
f 443 436 444
f 443 437 436
f 439 443 434
f 443 439 437
f 445 446 447
f 448 449 450
f 451 445 450
f 445 451 446
f 449 451 450
f 446 452 447
f 453 452 446
f 454 453 446
f 454 455 456
f 455 454 446
f 455 448 456
f 455 449 448
f 451 455 446
f 455 451 449
f 444 436 448
f 444 448 456
f 436 438 450
f 436 450 448
f 438 433 445
f 438 445 450
f 433 435 447
f 433 447 445
f 435 440 452
f 435 452 447
f 440 441 453
f 440 453 452
f 441 442 454
f 441 454 453
f 442 444 456
f 442 456 454

o 63907176-29e6-4990-81fc-238b71bcf93f_22 SolitaryVegetationObject
g lod_cfd
f 457 458 459
f 460 458 461
f 458 460 459
f 457 462 463
f 462 457 459
f 464 457 463
f 465 466 467
f 457 466 458
f 466 464 467
f 464 466 457
f 466 468 458
f 468 466 465
f 458 468 461
f 468 465 461
f 469 470 471
f 472 470 473
f 470 472 471
f 469 474 475
f 474 469 471
f 476 469 475
f 477 478 479
f 469 478 470
f 478 476 479
f 476 478 469
f 478 480 470
f 480 478 477
f 470 480 473
f 480 477 473
f 461 465 477
f 461 477 473
f 465 467 479
f 465 479 477
f 467 464 476
f 467 476 479
f 464 463 475
f 464 475 476
f 463 462 474
f 463 474 475
f 462 459 471
f 462 471 474
f 459 460 472
f 459 472 471
f 460 461 473
f 460 473 472

o 63907176-29e6-4990-81fc-238b71bcf93f_55 SolitaryVegetationObject
g lod_cfd
f 481 482 483
f 482 481 484
f 485 486 487
f 482 488 483
f 488 482 489
f 486 490 487
f 490 486 484
f 491 482 484
f 486 491 484
f 482 491 489
f 491 485 489
f 491 486 485
f 481 492 484
f 492 490 484
f 493 494 495
f 494 493 496
f 497 498 499
f 494 500 495
f 500 494 501
f 498 502 499
f 502 498 496
f 503 494 496
f 498 503 496
f 494 503 501
f 503 497 501
f 503 498 497
f 493 504 496
f 504 502 496
f 487 490 502
f 487 502 499
f 490 492 504
f 490 504 502
f 492 481 493
f 492 493 504
f 481 483 495
f 481 495 493
f 483 488 500
f 483 500 495
f 488 489 501
f 488 501 500
f 489 485 497
f 489 497 501
f 485 487 499
f 485 499 497

o 63907176-29e6-4990-81fc-238b71bcf93f_56 SolitaryVegetationObject
g lod_cfd
f 505 506 507
f 508 509 510
f 506 508 510
f 508 506 505
f 508 511 509
f 512 505 507
f 513 512 507
f 514 512 513
f 512 515 505
f 515 508 505
f 508 515 511
f 511 515 516
f 515 514 516
f 515 512 514
f 517 518 519
f 520 521 522
f 518 520 522
f 520 518 517
f 520 523 521
f 524 517 519
f 525 524 519
f 526 524 525
f 524 527 517
f 527 520 517
f 520 527 523
f 523 527 528
f 527 526 528
f 527 524 526
f 510 509 521
f 510 521 522
f 509 511 523
f 509 523 521
f 511 516 528
f 511 528 523
f 516 514 526
f 516 526 528
f 514 513 525
f 514 525 526
f 513 507 519
f 513 519 525
f 507 506 518
f 507 518 519
f 506 510 522
f 506 522 518

o 63907176-29e6-4990-81fc-238b71bcf93f_57 SolitaryVegetationObject
g lod_cfd
f 529 530 531
f 530 529 532
f 533 534 531
f 534 529 531
f 534 533 535
f 536 534 535
f 534 536 537
f 536 538 537
f 538 539 537
f 539 534 537
f 534 539 529
f 540 539 538
f 529 540 532
f 539 540 529
f 541 542 543
f 542 541 544
f 545 546 543
f 546 541 543
f 546 545 547
f 548 546 547
f 546 548 549
f 548 550 549
f 550 551 549
f 551 546 549
f 546 551 541
f 552 551 550
f 541 552 544
f 551 552 541
f 532 540 552
f 532 552 544
f 540 538 550
f 540 550 552
f 538 536 548
f 538 548 550
f 536 535 547
f 536 547 548
f 535 533 545
f 535 545 547
f 533 531 543
f 533 543 545
f 531 530 542
f 531 542 543
f 530 532 544
f 530 544 542

o 63907176-29e6-4990-81fc-238b71bcf93f_59 SolitaryVegetationObject
g lod_cfd
f 553 554 555
f 554 553 556
f 557 558 556
f 558 554 556
f 558 557 559
f 554 560 555
f 561 560 554
f 558 562 554
f 562 558 559
f 563 562 559
f 562 564 554
f 564 562 563
f 564 561 554
f 564 563 561
f 565 566 567
f 566 565 568
f 569 570 568
f 570 566 568
f 570 569 571
f 566 572 567
f 573 572 566
f 570 574 566
f 574 570 571
f 575 574 571
f 574 576 566
f 576 574 575
f 576 573 566
f 576 575 573
f 555 560 572
f 555 572 567
f 560 561 573
f 560 573 572
f 561 563 575
f 561 575 573
f 563 559 571
f 563 571 575
f 559 557 569
f 559 569 571
f 557 556 568
f 557 568 569
f 556 553 565
f 556 565 568
f 553 555 567
f 553 567 565

o 63907176-29e6-4990-81fc-238b71bcf93f_60 SolitaryVegetationObject
g lod_cfd
f 577 578 579
f 580 581 582
f 578 583 579
f 583 584 579
f 584 583 582
f 583 580 582
f 580 583 578
f 585 577 586
f 577 585 578
f 585 580 578
f 587 585 586
f 580 585 587
f 588 580 587
f 580 588 581
f 589 590 591
f 592 593 594
f 590 595 591
f 595 596 591
f 596 595 594
f 595 592 594
f 592 595 590
f 597 589 598
f 589 597 590
f 597 592 590
f 599 597 598
f 592 597 599
f 600 592 599
f 592 600 593
f 586 577 589
f 586 589 598
f 577 579 591
f 577 591 589
f 579 584 596
f 579 596 591
f 584 582 594
f 584 594 596
f 582 581 593
f 582 593 594
f 581 588 600
f 581 600 593
f 588 587 599
f 588 599 600
f 587 586 598
f 587 598 599

o 63907176-29e6-4990-81fc-238b71bcf93f_61 SolitaryVegetationObject
g lod_cfd
f 601 602 603
f 604 601 603
f 602 605 603
f 606 607 608
f 607 605 602
f 605 607 606
f 607 609 608
f 609 607 610
f 611 604 612
f 611 601 604
f 610 611 612
f 607 611 610
f 601 611 602
f 611 607 602
f 613 614 615
f 616 613 615
f 614 617 615
f 618 619 620
f 619 617 614
f 617 619 618
f 619 621 620
f 621 619 622
f 623 616 624
f 623 613 616
f 622 623 624
f 619 623 622
f 613 623 614
f 623 619 614
f 608 609 621
f 608 621 620
f 609 610 622
f 609 622 621
f 610 612 624
f 610 624 622
f 612 604 616
f 612 616 624
f 604 603 615
f 604 615 616
f 603 605 617
f 603 617 615
f 605 606 618
f 605 618 617
f 606 608 620
f 606 620 618

o 63907176-29e6-4990-81fc-238b71bcf93f_62 SolitaryVegetationObject
g lod_cfd
f 625 626 627
f 626 628 627
f 626 629 628
f 629 630 631
f 632 633 628
f 632 629 631
f 629 632 628
f 628 634 627
f 633 634 628
f 630 635 636
f 629 635 630
f 635 629 626
f 635 625 636
f 635 626 625
f 637 638 639
f 638 640 639
f 638 641 640
f 641 642 643
f 644 645 640
f 644 641 643
f 641 644 640
f 640 646 639
f 645 646 640
f 642 647 648
f 641 647 642
f 647 641 638
f 647 637 648
f 647 638 637
f 627 634 646
f 627 646 639
f 634 633 645
f 634 645 646
f 633 632 644
f 633 644 645
f 632 631 643
f 632 643 644
f 631 630 642
f 631 642 643
f 630 636 648
f 630 648 642
f 636 625 637
f 636 637 648
f 625 627 639
f 625 639 637

o 63907176-29e6-4990-81fc-238b71bcf93f_63 SolitaryVegetationObject
g lod_cfd
f 649 650 651
f 649 652 650
f 653 652 649
f 652 653 654
f 650 655 651
f 655 656 651
f 656 655 650
f 657 656 650
f 652 657 650
f 657 658 656
f 657 652 659
f 658 657 659
f 660 652 654
f 652 660 659
f 661 662 663
f 661 664 662
f 665 664 661
f 664 665 666
f 662 667 663
f 667 668 663
f 668 667 662
f 669 668 662
f 664 669 662
f 669 670 668
f 669 664 671
f 670 669 671
f 672 664 666
f 664 672 671
f 651 656 668
f 651 668 663
f 656 658 670
f 656 670 668
f 658 659 671
f 658 671 670
f 659 660 672
f 659 672 671
f 660 654 666
f 660 666 672
f 654 653 665
f 654 665 666
f 653 649 661
f 653 661 665
f 649 651 663
f 649 663 661

o 63907176-29e6-4990-81fc-238b71bcf93f_64 SolitaryVegetationObject
g lod_cfd
f 673 674 675
f 674 676 675
f 676 677 678
f 677 676 674
f 679 674 673
f 680 677 674
f 680 679 681
f 679 680 674
f 682 683 684
f 683 685 684
f 685 686 687
f 686 685 683
f 688 683 682
f 689 686 683
f 689 688 690
f 688 689 683
f 681 679 688
f 681 688 690
f 679 673 682
f 679 682 688
f 673 675 684
f 673 684 682
f 675 676 685
f 675 685 684
f 676 678 687
f 676 687 685
f 678 677 686
f 678 686 687
f 677 680 689
f 677 689 686
f 680 681 690
f 680 690 689

o 63907176-29e6-4990-81fc-238b71bcf93f_65 SolitaryVegetationObject
g lod_cfd
f 691 692 693
f 694 695 696
f 695 694 697
f 692 694 696
f 694 692 691
f 698 691 693
f 699 700 701
f 697 699 701
f 694 699 697
f 698 702 691
f 702 698 700
f 699 702 700
f 702 694 691
f 702 699 694
f 703 704 705
f 706 707 708
f 707 706 709
f 704 706 708
f 706 704 703
f 710 703 705
f 711 712 713
f 709 711 713
f 706 711 709
f 710 714 703
f 714 710 712
f 711 714 712
f 714 706 703
f 714 711 706
f 693 692 704
f 693 704 705
f 692 696 708
f 692 708 704
f 696 695 707
f 696 707 708
f 695 697 709
f 695 709 707
f 697 701 713
f 697 713 709
f 701 700 712
f 701 712 713
f 700 698 710
f 700 710 712
f 698 693 705
f 698 705 710

o 63907176-29e6-4990-81fc-238b71bcf93f_67 SolitaryVegetationObject
g lod_cfd
f 715 716 717
f 718 715 719
f 715 718 716
f 718 720 716
f 720 718 721
f 720 722 716
f 723 722 724
f 716 722 717
f 722 723 717
f 725 720 721
f 722 725 724
f 725 722 720
f 726 718 719
f 718 726 721
f 727 728 729
f 730 727 731
f 727 730 728
f 730 732 728
f 732 730 733
f 732 734 728
f 735 734 736
f 728 734 729
f 734 735 729
f 737 732 733
f 734 737 736
f 737 734 732
f 738 730 731
f 730 738 733
f 719 715 727
f 719 727 731
f 715 717 729
f 715 729 727
f 717 723 735
f 717 735 729
f 723 724 736
f 723 736 735
f 724 725 737
f 724 737 736
f 725 721 733
f 725 733 737
f 721 726 738
f 721 738 733
f 726 719 731
f 726 731 738

o 63907176-29e6-4990-81fc-238b71bcf93f_69 SolitaryVegetationObject
g lod_cfd
f 739 740 741
f 742 743 740
f 743 744 741
f 740 743 741
f 745 739 746
f 739 745 740
f 742 745 746
f 745 742 740
f 743 747 744
f 748 743 742
f 749 748 750
f 748 749 743
f 747 749 750
f 749 747 743
f 751 752 753
f 754 755 752
f 755 756 753
f 752 755 753
f 757 751 758
f 751 757 752
f 754 757 758
f 757 754 752
f 755 759 756
f 760 755 754
f 761 760 762
f 760 761 755
f 759 761 762
f 761 759 755
f 746 739 751
f 746 751 758
f 739 741 753
f 739 753 751
f 741 744 756
f 741 756 753
f 744 747 759
f 744 759 756
f 747 750 762
f 747 762 759
f 750 748 760
f 750 760 762
f 748 742 754
f 748 754 760
f 742 746 758
f 742 758 754

o 63907176-29e6-4990-81fc-238b71bcf93f_70 SolitaryVegetationObject
g lod_cfd
f 763 764 765
f 764 763 766
f 767 763 765
f 763 767 768
f 769 770 771
f 772 764 766
f 763 773 766
f 773 769 766
f 773 763 768
f 770 773 768
f 769 773 770
f 769 774 766
f 774 772 766
f 774 769 771
f 775 776 777
f 776 775 778
f 779 775 777
f 775 779 780
f 781 782 783
f 784 776 778
f 775 785 778
f 785 781 778
f 785 775 780
f 782 785 780
f 781 785 782
f 781 786 778
f 786 784 778
f 786 781 783
f 765 764 776
f 765 776 777
f 764 772 784
f 764 784 776
f 772 774 786
f 772 786 784
f 774 771 783
f 774 783 786
f 771 770 782
f 771 782 783
f 770 768 780
f 770 780 782
f 768 767 779
f 768 779 780
f 767 765 777
f 767 777 779

o 63907176-29e6-4990-81fc-238b71bcf93f_71 SolitaryVegetationObject
g lod_cfd
f 787 788 789
f 788 787 790
f 791 792 789
f 792 787 789
f 787 792 793
f 794 795 793
f 795 796 793
f 787 796 790
f 796 787 793
f 797 791 798
f 797 792 791
f 792 797 793
f 794 797 798
f 797 794 793
f 799 800 801
f 800 799 802
f 803 804 801
f 804 799 801
f 799 804 805
f 806 807 805
f 807 808 805
f 799 808 802
f 808 799 805
f 809 803 810
f 809 804 803
f 804 809 805
f 806 809 810
f 809 806 805
f 790 796 808
f 790 808 802
f 796 795 807
f 796 807 808
f 795 794 806
f 795 806 807
f 794 798 810
f 794 810 806
f 798 791 803
f 798 803 810
f 791 789 801
f 791 801 803
f 789 788 800
f 789 800 801
f 788 790 802
f 788 802 800

o 63907176-29e6-4990-81fc-238b71bcf93f_72 SolitaryVegetationObject
g lod_cfd
f 811 812 813
f 814 815 816
f 814 811 817
f 812 814 816
f 811 814 812
f 818 811 813
f 815 819 820
f 814 819 815
f 819 814 817
f 819 821 820
f 821 819 817
f 822 821 817
f 811 822 817
f 818 822 811
f 823 824 825
f 826 827 828
f 826 823 829
f 824 826 828
f 823 826 824
f 830 823 825
f 827 831 832
f 826 831 827
f 831 826 829
f 831 833 832
f 833 831 829
f 834 833 829
f 823 834 829
f 830 834 823
f 813 812 824
f 813 824 825
f 812 816 828
f 812 828 824
f 816 815 827
f 816 827 828
f 815 820 832
f 815 832 827
f 820 821 833
f 820 833 832
f 821 822 834
f 821 834 833
f 822 818 830
f 822 830 834
f 818 813 825
f 818 825 830

o 63907176-29e6-4990-81fc-238b71bcf93f_74 SolitaryVegetationObject
g lod_cfd
f 835 836 837
f 838 835 837
f 838 839 840
f 839 838 837
f 841 839 837
f 842 840 843
f 842 838 840
f 844 842 843
f 842 844 845
f 842 846 838
f 846 842 845
f 846 835 838
f 835 846 836
f 846 845 836
f 847 848 849
f 850 847 849
f 850 851 852
f 851 850 849
f 853 851 849
f 854 852 855
f 854 850 852
f 856 854 855
f 854 856 857
f 854 858 850
f 858 854 857
f 858 847 850
f 847 858 848
f 858 857 848
f 843 840 852
f 843 852 855
f 840 839 851
f 840 851 852
f 839 841 853
f 839 853 851
f 841 837 849
f 841 849 853
f 837 836 848
f 837 848 849
f 836 845 857
f 836 857 848
f 845 844 856
f 845 856 857
f 844 843 855
f 844 855 856

o 63907176-29e6-4990-81fc-238b71bcf93f_75 SolitaryVegetationObject
g lod_cfd
f 859 860 861
f 860 862 861
f 863 864 865
f 864 863 866
f 863 867 860
f 867 862 860
f 862 867 868
f 867 869 868
f 867 863 865
f 869 867 865
f 870 863 860
f 859 870 860
f 863 870 866
f 870 859 866
f 871 872 873
f 872 874 873
f 875 876 877
f 876 875 878
f 875 879 872
f 879 874 872
f 874 879 880
f 879 881 880
f 879 875 877
f 881 879 877
f 882 875 872
f 871 882 872
f 875 882 878
f 882 871 878
f 861 862 874
f 861 874 873
f 862 868 880
f 862 880 874
f 868 869 881
f 868 881 880
f 869 865 877
f 869 877 881
f 865 864 876
f 865 876 877
f 864 866 878
f 864 878 876
f 866 859 871
f 866 871 878
f 859 861 873
f 859 873 871

o 63907176-29e6-4990-81fc-238b71bcf93f_76 SolitaryVegetationObject
g lod_cfd
f 883 884 885
f 886 887 888
f 889 884 888
f 890 889 891
f 889 890 885
f 884 889 885
f 889 887 891
f 887 889 888
f 892 883 893
f 892 884 883
f 894 892 893
f 884 892 888
f 892 886 888
f 892 894 886
f 895 896 897
f 898 899 900
f 901 896 900
f 902 901 903
f 901 902 897
f 896 901 897
f 901 899 903
f 899 901 900
f 904 895 905
f 904 896 895
f 906 904 905
f 896 904 900
f 904 898 900
f 904 906 898
f 893 883 895
f 893 895 905
f 883 885 897
f 883 897 895
f 885 890 902
f 885 902 897
f 890 891 903
f 890 903 902
f 891 887 899
f 891 899 903
f 887 886 898
f 887 898 899
f 886 894 906
f 886 906 898
f 894 893 905
f 894 905 906

o 63907176-29e6-4990-81fc-238b71bcf93f_78 SolitaryVegetationObject
g lod_cfd
f 907 908 909
f 910 911 912
f 911 913 907
f 911 910 914
f 913 911 914
f 915 908 907
f 913 915 907
f 915 913 914
f 916 917 912
f 911 916 912
f 916 911 907
f 916 918 917
f 916 907 909
f 918 916 909
f 919 920 921
f 922 923 924
f 923 925 919
f 923 922 926
f 925 923 926
f 927 920 919
f 925 927 919
f 927 925 926
f 928 929 924
f 923 928 924
f 928 923 919
f 928 930 929
f 928 919 921
f 930 928 921
f 909 908 920
f 909 920 921
f 908 915 927
f 908 927 920
f 915 914 926
f 915 926 927
f 914 910 922
f 914 922 926
f 910 912 924
f 910 924 922
f 912 917 929
f 912 929 924
f 917 918 930
f 917 930 929
f 918 909 921
f 918 921 930

o 63907176-29e6-4990-81fc-238b71bcf93f_79 SolitaryVegetationObject
g lod_cfd
f 931 932 933
f 931 934 935
f 934 931 933
f 932 936 933
f 933 936 937
f 936 938 937
f 938 936 939
f 936 940 939
f 940 936 932
f 941 933 937
f 941 934 933
f 942 931 935
f 931 942 932
f 942 940 932
f 943 944 945
f 943 946 947
f 946 943 945
f 944 948 945
f 945 948 949
f 948 950 949
f 950 948 951
f 948 952 951
f 952 948 944
f 953 945 949
f 953 946 945
f 954 943 947
f 943 954 944
f 954 952 944
f 935 934 946
f 935 946 947
f 934 941 953
f 934 953 946
f 941 937 949
f 941 949 953
f 937 938 950
f 937 950 949
f 938 939 951
f 938 951 950
f 939 940 952
f 939 952 951
f 940 942 954
f 940 954 952
f 942 935 947
f 942 947 954

o 63907176-29e6-4990-81fc-238b71bcf93f_80 SolitaryVegetationObject
g lod_cfd
f 955 956 957
f 956 955 958
f 959 955 957
f 960 959 957
f 955 961 958
f 962 961 955
f 961 962 963
f 964 962 955
f 959 964 955
f 963 964 965
f 962 964 963
f 966 959 960
f 964 966 965
f 966 964 959
f 967 968 969
f 968 967 970
f 971 967 969
f 972 971 969
f 967 973 970
f 974 973 967
f 973 974 975
f 976 974 967
f 971 976 967
f 975 976 977
f 974 976 975
f 978 971 972
f 976 978 977
f 978 976 971
f 965 966 978
f 965 978 977
f 966 960 972
f 966 972 978
f 960 957 969
f 960 969 972
f 957 956 968
f 957 968 969
f 956 958 970
f 956 970 968
f 958 961 973
f 958 973 970
f 961 963 975
f 961 975 973
f 963 965 977
f 963 977 975

o 63907176-29e6-4990-81fc-238b71bcf93f_81 SolitaryVegetationObject
g lod_cfd
f 979 980 981
f 982 983 984
f 985 979 981
f 985 986 979
f 987 980 979
f 983 987 979
f 980 987 988
f 987 982 988
f 987 983 982
f 989 983 979
f 986 989 979
f 990 989 986
f 983 989 984
f 989 990 984
f 991 992 993
f 994 995 996
f 997 991 993
f 997 998 991
f 999 992 991
f 995 999 991
f 992 999 1000
f 999 994 1000
f 999 995 994
f 1001 995 991
f 998 1001 991
f 1002 1001 998
f 995 1001 996
f 1001 1002 996
f 984 990 1002
f 984 1002 996
f 990 986 998
f 990 998 1002
f 986 985 997
f 986 997 998
f 985 981 993
f 985 993 997
f 981 980 992
f 981 992 993
f 980 988 1000
f 980 1000 992
f 988 982 994
f 988 994 1000
f 982 984 996
f 982 996 994

o 63907176-29e6-4990-81fc-238b71bcf93f_82 SolitaryVegetationObject
g lod_cfd
f 1003 1004 1005
f 1006 1007 1008
f 1009 1007 1010
f 1007 1006 1010
f 1011 1009 1010
f 1011 1012 1009
f 1012 1013 1009
f 1013 1004 1009
f 1004 1013 1005
f 1007 1014 1008
f 1014 1003 1008
f 1014 1004 1003
f 1004 1014 1009
f 1014 1007 1009
f 1015 1016 1017
f 1018 1019 1020
f 1021 1019 1022
f 1019 1018 1022
f 1023 1021 1022
f 1023 1024 1021
f 1024 1025 1021
f 1025 1016 1021
f 1016 1025 1017
f 1019 1026 1020
f 1026 1015 1020
f 1026 1016 1015
f 1016 1026 1021
f 1026 1019 1021
f 1005 1013 1025
f 1005 1025 1017
f 1013 1012 1024
f 1013 1024 1025
f 1012 1011 1023
f 1012 1023 1024
f 1011 1010 1022
f 1011 1022 1023
f 1010 1006 1018
f 1010 1018 1022
f 1006 1008 1020
f 1006 1020 1018
f 1008 1003 1015
f 1008 1015 1020
f 1003 1005 1017
f 1003 1017 1015

o 63907176-29e6-4990-81fc-238b71bcf93f_83 SolitaryVegetationObject
g lod_cfd
f 1027 1028 1029
f 1028 1027 1030
f 1031 1027 1029
f 1027 1031 1032
f 1033 1031 1029
f 1031 1033 1032
f 1034 1027 1032
f 1034 1035 1030
f 1027 1034 1030
f 1035 1034 1036
f 1034 1037 1036
f 1033 1038 1032
f 1038 1034 1032
f 1034 1038 1037
f 1039 1040 1041
f 1040 1039 1042
f 1043 1039 1041
f 1039 1043 1044
f 1045 1043 1041
f 1043 1045 1044
f 1046 1039 1044
f 1046 1047 1042
f 1039 1046 1042
f 1047 1046 1048
f 1046 1049 1048
f 1045 1050 1044
f 1050 1046 1044
f 1046 1050 1049
f 1036 1037 1049
f 1036 1049 1048
f 1037 1038 1050
f 1037 1050 1049
f 1038 1033 1045
f 1038 1045 1050
f 1033 1029 1041
f 1033 1041 1045
f 1029 1028 1040
f 1029 1040 1041
f 1028 1030 1042
f 1028 1042 1040
f 1030 1035 1047
f 1030 1047 1042
f 1035 1036 1048
f 1035 1048 1047

o 63907176-29e6-4990-81fc-238b71bcf93f_84 SolitaryVegetationObject
g lod_cfd
f 1051 1052 1053
f 1052 1051 1054
f 1051 1055 1054
f 1052 1056 1053
f 1056 1052 1057
f 1058 1055 1059
f 1055 1058 1054
f 1060 1052 1054
f 1052 1060 1057
f 1060 1061 1057
f 1058 1062 1054
f 1062 1058 1061
f 1062 1060 1054
f 1060 1062 1061
f 1063 1064 1065
f 1064 1063 1066
f 1063 1067 1066
f 1064 1068 1065
f 1068 1064 1069
f 1070 1067 1071
f 1067 1070 1066
f 1072 1064 1066
f 1064 1072 1069
f 1072 1073 1069
f 1070 1074 1066
f 1074 1070 1073
f 1074 1072 1066
f 1072 1074 1073
f 1059 1055 1067
f 1059 1067 1071
f 1055 1051 1063
f 1055 1063 1067
f 1051 1053 1065
f 1051 1065 1063
f 1053 1056 1068
f 1053 1068 1065
f 1056 1057 1069
f 1056 1069 1068
f 1057 1061 1073
f 1057 1073 1069
f 1061 1058 1070
f 1061 1070 1073
f 1058 1059 1071
f 1058 1071 1070

o 63907176-29e6-4990-81fc-238b71bcf93f_85 SolitaryVegetationObject
g lod_cfd
f 1075 1076 1077
f 1076 1075 1078
f 1076 1079 1080
f 1081 1082 1080
f 1076 1082 1077
f 1082 1076 1080
f 1083 1079 1076
f 1084 1083 1078
f 1083 1076 1078
f 1083 1084 1085
f 1079 1083 1085
f 1086 1081 1080
f 1079 1086 1080
f 1086 1079 1085
f 1087 1088 1089
f 1088 1087 1090
f 1088 1091 1092
f 1093 1094 1092
f 1088 1094 1089
f 1094 1088 1092
f 1095 1091 1088
f 1096 1095 1090
f 1095 1088 1090
f 1095 1096 1097
f 1091 1095 1097
f 1098 1093 1092
f 1091 1098 1092
f 1098 1091 1097
f 1085 1084 1096
f 1085 1096 1097
f 1084 1078 1090
f 1084 1090 1096
f 1078 1075 1087
f 1078 1087 1090
f 1075 1077 1089
f 1075 1089 1087
f 1077 1082 1094
f 1077 1094 1089
f 1082 1081 1093
f 1082 1093 1094
f 1081 1086 1098
f 1081 1098 1093
f 1086 1085 1097
f 1086 1097 1098

o 63907176-29e6-4990-81fc-238b71bcf93f_86 SolitaryVegetationObject
g lod_cfd
f 1099 1100 1101
f 1100 1099 1102
f 1099 1103 1104
f 1103 1105 1106
f 1103 1107 1104
f 1107 1108 1104
f 1099 1108 1102
f 1108 1099 1104
f 1105 1109 1101
f 1103 1109 1105
f 1109 1099 1101
f 1109 1103 1099
f 1110 1103 1106
f 1103 1110 1107
f 1111 1112 1113
f 1112 1111 1114
f 1111 1115 1116
f 1115 1117 1118
f 1115 1119 1116
f 1119 1120 1116
f 1111 1120 1114
f 1120 1111 1116
f 1117 1121 1113
f 1115 1121 1117
f 1121 1111 1113
f 1121 1115 1111
f 1122 1115 1118
f 1115 1122 1119
f 1102 1108 1120
f 1102 1120 1114
f 1108 1107 1119
f 1108 1119 1120
f 1107 1110 1122
f 1107 1122 1119
f 1110 1106 1118
f 1110 1118 1122
f 1106 1105 1117
f 1106 1117 1118
f 1105 1101 1113
f 1105 1113 1117
f 1101 1100 1112
f 1101 1112 1113
f 1100 1102 1114
f 1100 1114 1112

o 63907176-29e6-4990-81fc-238b71bcf93f_89 SolitaryVegetationObject
g lod_cfd
f 1123 1124 1125
f 1124 1123 1126
f 1127 1123 1125
f 1127 1128 1123
f 1129 1130 1131
f 1123 1132 1126
f 1132 1129 1126
f 1132 1130 1129
f 1128 1133 1123
f 1134 1133 1128
f 1133 1132 1123
f 1132 1133 1130
f 1133 1134 1131
f 1130 1133 1131
f 1135 1136 1137
f 1136 1135 1138
f 1139 1135 1137
f 1139 1140 1135
f 1141 1142 1143
f 1135 1144 1138
f 1144 1141 1138
f 1144 1142 1141
f 1140 1145 1135
f 1146 1145 1140
f 1145 1144 1135
f 1144 1145 1142
f 1145 1146 1143
f 1142 1145 1143
f 1125 1124 1136
f 1125 1136 1137
f 1124 1126 1138
f 1124 1138 1136
f 1126 1129 1141
f 1126 1141 1138
f 1129 1131 1143
f 1129 1143 1141
f 1131 1134 1146
f 1131 1146 1143
f 1134 1128 1140
f 1134 1140 1146
f 1128 1127 1139
f 1128 1139 1140
f 1127 1125 1137
f 1127 1137 1139

o 63907176-29e6-4990-81fc-238b71bcf93f_92 SolitaryVegetationObject
g lod_cfd
f 1147 1148 1149
f 1150 1151 1152
f 1153 1147 1149
f 1153 1154 1147
f 1154 1155 1147
f 1156 1155 1154
f 1151 1155 1152
f 1155 1156 1152
f 1148 1157 1158
f 1157 1148 1147
f 1157 1150 1158
f 1157 1151 1150
f 1155 1157 1147
f 1157 1155 1151
f 1159 1160 1161
f 1162 1163 1164
f 1165 1159 1161
f 1165 1166 1159
f 1166 1167 1159
f 1168 1167 1166
f 1163 1167 1164
f 1167 1168 1164
f 1160 1169 1170
f 1169 1160 1159
f 1169 1162 1170
f 1169 1163 1162
f 1167 1169 1159
f 1169 1167 1163
f 1149 1148 1160
f 1149 1160 1161
f 1148 1158 1170
f 1148 1170 1160
f 1158 1150 1162
f 1158 1162 1170
f 1150 1152 1164
f 1150 1164 1162
f 1152 1156 1168
f 1152 1168 1164
f 1156 1154 1166
f 1156 1166 1168
f 1154 1153 1165
f 1154 1165 1166
f 1153 1149 1161
f 1153 1161 1165

o 63907176-29e6-4990-81fc-238b71bcf93f_93 SolitaryVegetationObject
g lod_cfd
f 1171 1172 1173
f 1174 1175 1176
f 1174 1172 1171
f 1177 1178 1179
f 1177 1171 1173
f 1178 1177 1173
f 1180 1174 1176
f 1174 1180 1172
f 1181 1179 1182
f 1181 1177 1179
f 1175 1181 1182
f 1174 1181 1175
f 1181 1174 1171
f 1177 1181 1171
f 1183 1184 1185
f 1186 1187 1188
f 1186 1184 1183
f 1189 1190 1191
f 1189 1183 1185
f 1190 1189 1185
f 1192 1186 1188
f 1186 1192 1184
f 1193 1191 1194
f 1193 1189 1191
f 1187 1193 1194
f 1186 1193 1187
f 1193 1186 1183
f 1189 1193 1183
f 1176 1175 1187
f 1176 1187 1188
f 1175 1182 1194
f 1175 1194 1187
f 1182 1179 1191
f 1182 1191 1194
f 1179 1178 1190
f 1179 1190 1191
f 1178 1173 1185
f 1178 1185 1190
f 1173 1172 1184
f 1173 1184 1185
f 1172 1180 1192
f 1172 1192 1184
f 1180 1176 1188
f 1180 1188 1192

o 63907176-29e6-4990-81fc-238b71bcf93f_94 SolitaryVegetationObject
g lod_cfd
f 1195 1196 1197
f 1198 1195 1197
f 1195 1198 1199
f 1200 1201 1196
f 1195 1200 1196
f 1200 1195 1199
f 1198 1202 1199
f 1203 1202 1204
f 1203 1204 1205
f 1203 1200 1199
f 1202 1203 1199
f 1206 1203 1205
f 1201 1203 1206
f 1200 1203 1201
f 1207 1208 1209
f 1210 1207 1209
f 1207 1210 1211
f 1212 1213 1208
f 1207 1212 1208
f 1212 1207 1211
f 1210 1214 1211
f 1215 1214 1216
f 1215 1216 1217
f 1215 1212 1211
f 1214 1215 1211
f 1218 1215 1217
f 1213 1215 1218
f 1212 1215 1213
f 1205 1204 1216
f 1205 1216 1217
f 1204 1202 1214
f 1204 1214 1216
f 1202 1198 1210
f 1202 1210 1214
f 1198 1197 1209
f 1198 1209 1210
f 1197 1196 1208
f 1197 1208 1209
f 1196 1201 1213
f 1196 1213 1208
f 1201 1206 1218
f 1201 1218 1213
f 1206 1205 1217
f 1206 1217 1218

o 63907176-29e6-4990-81fc-238b71bcf93f_95 SolitaryVegetationObject
g lod_cfd
f 1219 1220 1221
f 1220 1219 1222
f 1220 1223 1221
f 1224 1220 1222
f 1225 1224 1222
f 1226 1224 1225
f 1227 1226 1228
f 1227 1224 1226
f 1229 1227 1228
f 1230 1223 1220
f 1230 1229 1223
f 1230 1227 1229
f 1224 1230 1220
f 1227 1230 1224
f 1231 1232 1233
f 1232 1231 1234
f 1232 1235 1233
f 1236 1232 1234
f 1237 1236 1234
f 1238 1236 1237
f 1239 1238 1240
f 1239 1236 1238
f 1241 1239 1240
f 1242 1235 1232
f 1242 1241 1235
f 1242 1239 1241
f 1236 1242 1232
f 1239 1242 1236
f 1221 1223 1235
f 1221 1235 1233
f 1223 1229 1241
f 1223 1241 1235
f 1229 1228 1240
f 1229 1240 1241
f 1228 1226 1238
f 1228 1238 1240
f 1226 1225 1237
f 1226 1237 1238
f 1225 1222 1234
f 1225 1234 1237
f 1222 1219 1231
f 1222 1231 1234
f 1219 1221 1233
f 1219 1233 1231

o 63907176-29e6-4990-81fc-238b71bcf93f_96 SolitaryVegetationObject
g lod_cfd
f 1243 1244 1245
f 1246 1247 1248
f 1247 1246 1249
f 1250 1246 1248
f 1246 1250 1251
f 1250 1252 1251
f 1253 1246 1251
f 1244 1253 1251
f 1246 1253 1249
f 1253 1243 1249
f 1253 1244 1243
f 1252 1254 1251
f 1254 1244 1251
f 1244 1254 1245
f 1255 1256 1257
f 1258 1259 1260
f 1259 1258 1261
f 1262 1258 1260
f 1258 1262 1263
f 1262 1264 1263
f 1265 1258 1263
f 1256 1265 1263
f 1258 1265 1261
f 1265 1255 1261
f 1265 1256 1255
f 1264 1266 1263
f 1266 1256 1263
f 1256 1266 1257
f 1248 1247 1259
f 1248 1259 1260
f 1247 1249 1261
f 1247 1261 1259
f 1249 1243 1255
f 1249 1255 1261
f 1243 1245 1257
f 1243 1257 1255
f 1245 1254 1266
f 1245 1266 1257
f 1254 1252 1264
f 1254 1264 1266
f 1252 1250 1262
f 1252 1262 1264
f 1250 1248 1260
f 1250 1260 1262

o 63907176-29e6-4990-81fc-238b71bcf93f_97 SolitaryVegetationObject
g lod_cfd
f 1267 1268 1269
f 1270 1267 1269
f 1267 1270 1271
f 1267 1271 1272
f 1267 1272 1273
f 1268 1267 1273
f 1272 1274 1273
f 1271 1275 1272
f 1270 1275 1271
f 1276 1275 1277
f 1275 1270 1277
f 1278 1274 1272
f 1275 1278 1272
f 1278 1275 1276
f 1279 1280 1281
f 1282 1279 1281
f 1279 1282 1283
f 1279 1283 1284
f 1279 1284 1285
f 1280 1279 1285
f 1284 1286 1285
f 1283 1287 1284
f 1282 1287 1283
f 1288 1287 1289
f 1287 1282 1289
f 1290 1286 1284
f 1287 1290 1284
f 1290 1287 1288
f 1277 1270 1282
f 1277 1282 1289
f 1270 1269 1281
f 1270 1281 1282
f 1269 1268 1280
f 1269 1280 1281
f 1268 1273 1285
f 1268 1285 1280
f 1273 1274 1286
f 1273 1286 1285
f 1274 1278 1290
f 1274 1290 1286
f 1278 1276 1288
f 1278 1288 1290
f 1276 1277 1289
f 1276 1289 1288

o 63907176-29e6-4990-81fc-238b71bcf93f_100 SolitaryVegetationObject
g lod_cfd
f 1291 1292 1293
f 1294 1295 1296
f 1294 1297 1298
f 1297 1299 1298
f 1292 1299 1293
f 1299 1292 1298
f 1295 1300 1301
f 1294 1300 1295
f 1300 1294 1298
f 1292 1300 1298
f 1300 1291 1301
f 1300 1292 1291
f 1302 1294 1296
f 1294 1302 1297
f 1303 1304 1305
f 1306 1307 1308
f 1306 1309 1310
f 1309 1311 1310
f 1304 1311 1305
f 1311 1304 1310
f 1307 1312 1313
f 1306 1312 1307
f 1312 1306 1310
f 1304 1312 1310
f 1312 1303 1313
f 1312 1304 1303
f 1314 1306 1308
f 1306 1314 1309
f 1293 1299 1311
f 1293 1311 1305
f 1299 1297 1309
f 1299 1309 1311
f 1297 1302 1314
f 1297 1314 1309
f 1302 1296 1308
f 1302 1308 1314
f 1296 1295 1307
f 1296 1307 1308
f 1295 1301 1313
f 1295 1313 1307
f 1301 1291 1303
f 1301 1303 1313
f 1291 1293 1305
f 1291 1305 1303

o 63907176-29e6-4990-81fc-238b71bcf93f_101 SolitaryVegetationObject
g lod_cfd
f 1315 1316 1317
f 1318 1315 1317
f 1319 1320 1321
f 1322 1320 1316
f 1315 1322 1316
f 1322 1315 1320
f 1323 1318 1324
f 1323 1315 1318
f 1325 1323 1324
f 1315 1323 1320
f 1320 1323 1321
f 1323 1325 1321
f 1320 1326 1316
f 1319 1326 1320
f 1327 1328 1329
f 1330 1327 1329
f 1331 1332 1333
f 1334 1332 1328
f 1327 1334 1328
f 1334 1327 1332
f 1335 1330 1336
f 1335 1327 1330
f 1337 1335 1336
f 1327 1335 1332
f 1332 1335 1333
f 1335 1337 1333
f 1332 1338 1328
f 1331 1338 1332
f 1317 1316 1328
f 1317 1328 1329
f 1316 1326 1338
f 1316 1338 1328
f 1326 1319 1331
f 1326 1331 1338
f 1319 1321 1333
f 1319 1333 1331
f 1321 1325 1337
f 1321 1337 1333
f 1325 1324 1336
f 1325 1336 1337
f 1324 1318 1330
f 1324 1330 1336
f 1318 1317 1329
f 1318 1329 1330

o 63907176-29e6-4990-81fc-238b71bcf93f_102 SolitaryVegetationObject
g lod_cfd
f 1339 1340 1341
f 1340 1339 1342
f 1343 1344 1342
f 1344 1340 1342
f 1344 1343 1345
f 1340 1346 1341
f 1347 1346 1340
f 1344 1348 1340
f 1348 1344 1345
f 1349 1347 1340
f 1348 1349 1340
f 1350 1348 1345
f 1350 1349 1348
f 1349 1350 1347
f 1351 1352 1353
f 1352 1351 1354
f 1355 1356 1354
f 1356 1352 1354
f 1356 1355 1357
f 1352 1358 1353
f 1359 1358 1352
f 1356 1360 1352
f 1360 1356 1357
f 1361 1359 1352
f 1360 1361 1352
f 1362 1360 1357
f 1362 1361 1360
f 1361 1362 1359
f 1345 1343 1355
f 1345 1355 1357
f 1343 1342 1354
f 1343 1354 1355
f 1342 1339 1351
f 1342 1351 1354
f 1339 1341 1353
f 1339 1353 1351
f 1341 1346 1358
f 1341 1358 1353
f 1346 1347 1359
f 1346 1359 1358
f 1347 1350 1362
f 1347 1362 1359
f 1350 1345 1357
f 1350 1357 1362

o 63907176-29e6-4990-81fc-238b71bcf93f_103 SolitaryVegetationObject
g lod_cfd
f 1363 1364 1365
f 1364 1363 1366
f 1363 1367 1366
f 1368 1369 1367
f 1367 1370 1366
f 1369 1370 1367
f 1371 1372 1365
f 1372 1363 1365
f 1363 1372 1367
f 1372 1373 1367
f 1373 1372 1371
f 1373 1371 1374
f 1368 1373 1374
f 1373 1368 1367
f 1375 1376 1377
f 1376 1375 1378
f 1375 1379 1378
f 1380 1381 1379
f 1379 1382 1378
f 1381 1382 1379
f 1383 1384 1377
f 1384 1375 1377
f 1375 1384 1379
f 1384 1385 1379
f 1385 1384 1383
f 1385 1383 1386
f 1380 1385 1386
f 1385 1380 1379
f 1366 1370 1382
f 1366 1382 1378
f 1370 1369 1381
f 1370 1381 1382
f 1369 1368 1380
f 1369 1380 1381
f 1368 1374 1386
f 1368 1386 1380
f 1374 1371 1383
f 1374 1383 1386
f 1371 1365 1377
f 1371 1377 1383
f 1365 1364 1376
f 1365 1376 1377
f 1364 1366 1378
f 1364 1378 1376

o 63907176-29e6-4990-81fc-238b71bcf93f_105 SolitaryVegetationObject
g lod_cfd
f 1387 1388 1389
f 1390 1387 1389
f 1391 1392 1393
f 1394 1391 1395
f 1387 1391 1393
f 1391 1390 1395
f 1391 1387 1390
f 1396 1387 1393
f 1387 1396 1388
f 1388 1396 1397
f 1396 1392 1397
f 1392 1396 1393
f 1398 1391 1394
f 1391 1398 1392
f 1399 1400 1401
f 1402 1399 1401
f 1403 1404 1405
f 1406 1403 1407
f 1399 1403 1405
f 1403 1402 1407
f 1403 1399 1402
f 1408 1399 1405
f 1399 1408 1400
f 1400 1408 1409
f 1408 1404 1409
f 1404 1408 1405
f 1410 1403 1406
f 1403 1410 1404
f 1397 1392 1404
f 1397 1404 1409
f 1392 1398 1410
f 1392 1410 1404
f 1398 1394 1406
f 1398 1406 1410
f 1394 1395 1407
f 1394 1407 1406
f 1395 1390 1402
f 1395 1402 1407
f 1390 1389 1401
f 1390 1401 1402
f 1389 1388 1400
f 1389 1400 1401
f 1388 1397 1409
f 1388 1409 1400

o 63907176-29e6-4990-81fc-238b71bcf93f_107 SolitaryVegetationObject
g lod_cfd
f 1411 1412 1413
f 1414 1415 1411
f 1415 1416 1411
f 1412 1416 1417
f 1411 1416 1412
f 1416 1418 1417
f 1418 1416 1415
f 1419 1411 1413
f 1420 1419 1413
f 1419 1414 1411
f 1419 1420 1421
f 1414 1419 1421
f 1422 1414 1421
f 1414 1422 1415
f 1423 1424 1425
f 1426 1427 1423
f 1427 1428 1423
f 1424 1428 1429
f 1423 1428 1424
f 1428 1430 1429
f 1430 1428 1427
f 1431 1423 1425
f 1432 1431 1425
f 1431 1426 1423
f 1431 1432 1433
f 1426 1431 1433
f 1434 1426 1433
f 1426 1434 1427
f 1417 1418 1430
f 1417 1430 1429
f 1418 1415 1427
f 1418 1427 1430
f 1415 1422 1434
f 1415 1434 1427
f 1422 1421 1433
f 1422 1433 1434
f 1421 1420 1432
f 1421 1432 1433
f 1420 1413 1425
f 1420 1425 1432
f 1413 1412 1424
f 1413 1424 1425
f 1412 1417 1429
f 1412 1429 1424

o 63907176-29e6-4990-81fc-238b71bcf93f_109 SolitaryVegetationObject
g lod_cfd
f 1435 1436 1437
f 1436 1438 1437
f 1438 1439 1437
f 1440 1439 1438
f 1436 1441 1438
f 1442 1441 1435
f 1441 1436 1435
f 1443 1440 1438
f 1444 1443 1438
f 1441 1445 1438
f 1445 1441 1442
f 1445 1442 1446
f 1444 1445 1446
f 1445 1444 1438
f 1447 1448 1449
f 1448 1450 1449
f 1450 1451 1449
f 1452 1451 1450
f 1448 1453 1450
f 1454 1453 1447
f 1453 1448 1447
f 1455 1452 1450
f 1456 1455 1450
f 1453 1457 1450
f 1457 1453 1454
f 1457 1454 1458
f 1456 1457 1458
f 1457 1456 1450
f 1437 1439 1451
f 1437 1451 1449
f 1439 1440 1452
f 1439 1452 1451
f 1440 1443 1455
f 1440 1455 1452
f 1443 1444 1456
f 1443 1456 1455
f 1444 1446 1458
f 1444 1458 1456
f 1446 1442 1454
f 1446 1454 1458
f 1442 1435 1447
f 1442 1447 1454
f 1435 1437 1449
f 1435 1449 1447

